<?xml version="1.0" encoding="utf-8"?>
<!-- Generator: Adobe Illustrator 23.0.2, SVG Export Plug-In . SVG Version: 6.00 Build 0)  -->
<svg version="1.1" id="Layer_1" xmlns="http://www.w3.org/2000/svg" xmlns:xlink="http://www.w3.org/1999/xlink" x="0px" y="0px"
	 viewBox="0 0 230.1 329.1" style="enable-background:new 0 0 230.1 329.1;" xml:space="preserve">
<style type="text/css">
	.st0{opacity:0.21;}
	.st1{fill:#FFFFFF;}
	.st2{fill:none;stroke:#F1EFED;stroke-width:0.9921;stroke-miterlimit:10;}
	.st3{fill:none;stroke:#F1EFED;stroke-width:1.4173;stroke-miterlimit:10;}
	.st4{opacity:0.21;fill:#B7B7B7;}
	.st5{fill:#132A3C;}
	.st6{fill:#FACE14;}
</style>
<g class="st0">
	<g>
		<g>
			<g id="map">
				<g>
					<polygon class="st1" points="217.7,310.3 6.8,310.3 6.8,15.9 217.7,15.9 217.7,15.9 217.7,310.3 					"/>
					<g>
						<line class="st2" x1="154.7" y1="60.4" x2="145.9" y2="80.9"/>
						<line class="st2" x1="49.3" y1="254.2" x2="81.8" y2="257.9"/>
						<line class="st2" x1="27.4" y1="6" x2="82.7" y2="97"/>
						<line class="st2" x1="180.6" y1="54" x2="168.7" y2="83.1"/>
						<path class="st3" d="M102.2,86.5l40.5,38.5c2,1.9,3.2,4.3,3.6,7l0,0c0.1,0.5,0.1,1.1,0.1,1.6V310l17,18.1"/>
						<line class="st3" x1="143.6" y1="0.3" x2="102.9" y2="87.2"/>
						<line class="st2" x1="154.6" y1="60.5" x2="122.8" y2="45.8"/>
						<line class="st2" x1="145.9" y1="269" x2="221.1" y2="269.4"/>
						<polyline class="st3" points="3,84 40.9,119.9 103.3,87 						"/>
						<path class="st3" d="M40.9,119.9l6.4,28.5c5.7,25.6,7.2,51.9,4.4,78L40.6,329"/>
						<path class="st3" d="M51.5,169.4l38.4-11.3c0-2.7,0.4-15,0.4-15l27.8-9.4"/>
						<line class="st2" x1="105.1" y1="138.7" x2="112.1" y2="213.6"/>
						<line class="st2" x1="129.2" y1="112.1" x2="118.1" y2="135"/>
						<line class="st2" x1="70.2" y1="162.9" x2="57.7" y2="110.8"/>
						<line class="st2" x1="126.1" y1="212.7" x2="124.8" y2="250.8"/>
						<line class="st2" x1="62.6" y1="134.2" x2="84.2" y2="126.9"/>
						<line class="st2" x1="80.5" y1="112.5" x2="84.2" y2="126.9"/>
						<polyline class="st3" points="147.2,174.5 188.4,174.5 188.4,106 200.7,62.1 129.5,29.9 						"/>
						<path class="st1" d="M48.3,266.3"/>
						<polyline class="st3" points="2.1,207.2 25,214.3 17.4,254.7 48.7,260 						"/>
						<line class="st2" x1="22.3" y1="229.6" x2="50.5" y2="234.9"/>
						<polyline class="st3" points="46,143.6 20.9,152.1 0.3,140.9 						"/>
						<line class="st2" x1="182.1" y1="269.4" x2="182.6" y2="328.5"/>
						<line class="st3" x1="145.9" y1="288.7" x2="95.7" y2="286.4"/>
						<polyline class="st3" points="91.2,329 98.9,234.1 51.8,228.7 						"/>
						<polyline class="st2" points="64.4,313 66.8,289.7 80.5,291.2 82.5,272.7 						"/>
						<path class="st2" d="M146.8,202.7c0.7,0,47-1.3,47-1.3v12.5l36.3,0.4"/>
						<path class="st2" d="M183,297.6c1.3-0.4,25.5-0.4,25.5-0.4"/>
						<line class="st2" x1="188.4" y1="106" x2="159.8" y2="106.4"/>
						<path class="st3" d="M83.4,257.6c0.2-0.7,5.6-45.7,5.6-45.7l56.2,1.3"/>
					</g>
				</g>
			</g>
		</g>
	</g>
</g>
<path class="st4" d="M126.5,198.5c-2.6,0-4.8,2.2-4.8,5.1c0,2.8,4.7,10.3,4.7,10.3s4.8-7.4,4.8-10.2
	C131.2,200.8,129.1,198.5,126.5,198.5z M126.5,206c-1.4,0-2.5-1.2-2.5-2.6c0-1.4,1.2-2.6,2.6-2.6c1.4,0,2.5,1.2,2.5,2.6
	C129,204.8,127.9,206,126.5,206z"/>
<g>
	<g>
		<path class="st5" d="M-13.4,320.1v0.7c-1.4-0.5-2.9-0.7-4.5-0.7H-13.4z"/>
		<polygon class="st5" points="-7.4,324.6 -4.5,324.6 -4.5,320.1 -8.9,320.1 -8.9,323.2 		"/>
		<rect x="0" y="320.1" class="st5" width="4.5" height="4.5"/>
		<rect x="8.9" y="320.1" class="st5" width="4.5" height="4.5"/>
		<rect x="17.8" y="320.1" class="st5" width="4.5" height="4.5"/>
		<rect x="26.7" y="320.1" class="st5" width="4.5" height="4.5"/>
		<rect x="35.6" y="320.1" class="st5" width="4.5" height="4.5"/>
		<rect x="44.5" y="320.1" class="st5" width="4.5" height="4.5"/>
		<rect x="53.4" y="320.1" class="st5" width="4.5" height="4.5"/>
		<path class="st5" d="M66.8,320.1v1.5c-1.5,0.8-2.9,1.8-4.1,3h-0.3v-4.5H66.8z"/>
		<polygon class="st5" points="-4.4,329.1 0,329.1 0,324.6 -4.5,324.6 -4.5,328.9 		"/>
		<rect x="4.4" y="324.6" class="st5" width="4.5" height="4.5"/>
		<rect x="13.3" y="324.6" class="st5" width="4.5" height="4.5"/>
		<rect x="22.3" y="324.6" class="st5" width="4.5" height="4.5"/>
		<rect x="31.2" y="324.6" class="st5" width="4.5" height="4.5"/>
		<rect x="40.1" y="324.6" class="st5" width="4.5" height="4.5"/>
		<rect x="49" y="324.6" class="st5" width="4.5" height="4.5"/>
		<path class="st5" d="M62.4,324.6v0.4c-1.1,1.2-2,2.6-2.6,4.1h-1.8v-4.5H62.4z"/>
	</g>
	<g>
		<path class="st5" d="M49,320.1v0.7c-1.4-0.5-2.9-0.7-4.5-0.7H49z"/>
		<polygon class="st5" points="55,324.6 57.9,324.6 57.9,320.1 53.5,320.1 53.5,323.2 		"/>
		<rect x="62.4" y="320.1" class="st5" width="4.5" height="4.5"/>
		<rect x="71.3" y="320.1" class="st5" width="4.5" height="4.5"/>
		<rect x="80.2" y="320.1" class="st5" width="4.5" height="4.5"/>
		<rect x="89.1" y="320.1" class="st5" width="4.5" height="4.5"/>
		<rect x="98" y="320.1" class="st5" width="4.5" height="4.5"/>
		<rect x="106.9" y="320.1" class="st5" width="4.5" height="4.5"/>
		<rect x="115.8" y="320.1" class="st5" width="4.5" height="4.5"/>
		<path class="st5" d="M129.2,320.1v1.5c-1.5,0.8-2.9,1.8-4.1,3h-0.3v-4.5H129.2z"/>
		<polygon class="st5" points="58,329.1 62.4,329.1 62.4,324.6 57.9,324.6 57.9,328.9 		"/>
		<rect x="66.8" y="324.6" class="st5" width="4.5" height="4.5"/>
		<rect x="75.7" y="324.6" class="st5" width="4.5" height="4.5"/>
		<rect x="84.6" y="324.6" class="st5" width="4.5" height="4.5"/>
		<rect x="93.6" y="324.6" class="st5" width="4.5" height="4.5"/>
		<rect x="102.5" y="324.6" class="st5" width="4.5" height="4.5"/>
		<rect x="111.4" y="324.6" class="st5" width="4.5" height="4.5"/>
		<path class="st5" d="M124.8,324.6v0.4c-1.1,1.2-2,2.6-2.6,4.1h-1.8v-4.5H124.8z"/>
	</g>
	<g>
		<path class="st5" d="M111.4,320.1v0.7c-1.4-0.5-2.9-0.7-4.5-0.7H111.4z"/>
		<polygon class="st5" points="117.4,324.6 120.3,324.6 120.3,320.1 115.8,320.1 115.8,323.2 		"/>
		<rect x="124.8" y="320.1" class="st5" width="4.5" height="4.5"/>
		<rect x="133.7" y="320.1" class="st5" width="4.5" height="4.5"/>
		<rect x="142.6" y="320.1" class="st5" width="4.5" height="4.5"/>
		<rect x="151.5" y="320.1" class="st5" width="4.5" height="4.5"/>
		<rect x="160.4" y="320.1" class="st5" width="4.5" height="4.5"/>
		<rect x="169.3" y="320.1" class="st5" width="4.5" height="4.5"/>
		<rect x="178.2" y="320.1" class="st5" width="4.5" height="4.5"/>
		<path class="st5" d="M191.6,320.1v1.5c-1.5,0.8-2.9,1.8-4.1,3h-0.3v-4.5H191.6z"/>
		<polygon class="st5" points="120.4,329.1 124.8,329.1 124.8,324.6 120.3,324.6 120.3,328.9 		"/>
		<rect x="129.2" y="324.6" class="st5" width="4.5" height="4.5"/>
		<rect x="138.1" y="324.6" class="st5" width="4.5" height="4.5"/>
		<rect x="147" y="324.6" class="st5" width="4.5" height="4.5"/>
		<rect x="156" y="324.6" class="st5" width="4.5" height="4.5"/>
		<rect x="164.9" y="324.6" class="st5" width="4.5" height="4.5"/>
		<rect x="173.8" y="324.6" class="st5" width="4.5" height="4.5"/>
		<path class="st5" d="M187.2,324.6v0.4c-1.1,1.2-2,2.6-2.6,4.1h-1.8v-4.5H187.2z"/>
	</g>
	<g>
		<path class="st5" d="M173.8,320.1v0.7c-1.4-0.5-2.9-0.7-4.5-0.7H173.8z"/>
		<polygon class="st5" points="179.8,324.6 182.7,324.6 182.7,320.1 178.2,320.1 178.2,323.2 		"/>
		<rect x="187.2" y="320.1" class="st5" width="4.5" height="4.5"/>
		<rect x="196.1" y="320.1" class="st5" width="4.5" height="4.5"/>
		<rect x="205" y="320.1" class="st5" width="4.5" height="4.5"/>
		<rect x="213.9" y="320.1" class="st5" width="4.5" height="4.5"/>
		<rect x="222.8" y="320.1" class="st5" width="4.5" height="4.5"/>
		<rect x="231.7" y="320.1" class="st5" width="4.5" height="4.5"/>
		<rect x="240.6" y="320.1" class="st5" width="4.5" height="4.5"/>
		<path class="st5" d="M254,320.1v1.5c-1.5,0.8-2.9,1.8-4.1,3h-0.3v-4.5H254z"/>
		<polygon class="st5" points="182.8,329.1 187.2,329.1 187.2,324.6 182.7,324.6 182.7,328.9 		"/>
		<rect x="191.6" y="324.6" class="st5" width="4.5" height="4.5"/>
		<rect x="200.5" y="324.6" class="st5" width="4.5" height="4.5"/>
		<rect x="209.4" y="324.6" class="st5" width="4.5" height="4.5"/>
		<rect x="218.4" y="324.6" class="st5" width="4.5" height="4.5"/>
		<rect x="227.3" y="324.6" class="st5" width="4.5" height="4.5"/>
		<rect x="236.2" y="324.6" class="st5" width="4.5" height="4.5"/>
		<path class="st5" d="M249.5,324.6v0.4c-1.1,1.2-2,2.6-2.6,4.1h-1.8v-4.5H249.5z"/>
	</g>
</g>
<g>
	<g>
		<path class="st6" d="M-25.3,0v0.7C-26.7,0.2-28.2,0-29.8,0H-25.3z"/>
		<polygon class="st6" points="-19.3,4.5 -16.4,4.5 -16.4,0 -20.9,0 -20.9,3 		"/>
		<rect x="-11.9" y="0" class="st6" width="4.5" height="4.5"/>
		<rect x="-3" y="0" class="st6" width="4.5" height="4.5"/>
		<rect x="5.9" y="0" class="st6" width="4.5" height="4.5"/>
		<rect x="14.8" y="0" class="st6" width="4.5" height="4.5"/>
		<rect x="23.7" y="0" class="st6" width="4.5" height="4.5"/>
		<rect x="32.6" y="0" class="st6" width="4.5" height="4.5"/>
		<rect x="41.5" y="0" class="st6" width="4.5" height="4.5"/>
		<path class="st6" d="M54.9,0v1.5c-1.5,0.8-2.9,1.8-4.1,3h-0.3V0H54.9z"/>
		<polygon class="st6" points="-16.3,8.9 -11.9,8.9 -11.9,4.5 -16.4,4.5 -16.4,8.8 		"/>
		<rect x="-7.5" y="4.5" class="st6" width="4.5" height="4.5"/>
		<rect x="1.4" y="4.5" class="st6" width="4.5" height="4.5"/>
		<rect x="10.3" y="4.5" class="st6" width="4.5" height="4.5"/>
		<rect x="19.3" y="4.5" class="st6" width="4.5" height="4.5"/>
		<rect x="28.2" y="4.5" class="st6" width="4.5" height="4.5"/>
		<rect x="37.1" y="4.5" class="st6" width="4.5" height="4.5"/>
		<path class="st6" d="M50.5,4.5v0.4c-1.1,1.2-2,2.6-2.6,4.1H46V4.5H50.5z"/>
	</g>
	<g>
		<path class="st6" d="M37.1,0v0.7C35.7,0.2,34.2,0,32.6,0H37.1z"/>
		<polygon class="st6" points="43.1,4.5 46,4.5 46,0 41.5,0 41.5,3 		"/>
		<rect x="50.5" y="0" class="st6" width="4.5" height="4.5"/>
		<rect x="59.4" y="0" class="st6" width="4.5" height="4.5"/>
		<rect x="68.3" y="0" class="st6" width="4.5" height="4.5"/>
		<rect x="77.2" y="0" class="st6" width="4.5" height="4.5"/>
		<rect x="86.1" y="0" class="st6" width="4.5" height="4.5"/>
		<rect x="95" y="0" class="st6" width="4.5" height="4.5"/>
		<rect x="103.9" y="0" class="st6" width="4.5" height="4.5"/>
		<path class="st6" d="M117.3,0v1.5c-1.5,0.8-2.9,1.8-4.1,3h-0.3V0H117.3z"/>
		<polygon class="st6" points="46.1,8.9 50.5,8.9 50.5,4.5 46,4.5 46,8.8 		"/>
		<rect x="54.9" y="4.5" class="st6" width="4.5" height="4.5"/>
		<rect x="63.8" y="4.5" class="st6" width="4.5" height="4.5"/>
		<rect x="72.7" y="4.5" class="st6" width="4.5" height="4.5"/>
		<rect x="81.7" y="4.5" class="st6" width="4.5" height="4.5"/>
		<rect x="90.6" y="4.5" class="st6" width="4.5" height="4.5"/>
		<rect x="99.5" y="4.5" class="st6" width="4.5" height="4.5"/>
		<path class="st6" d="M112.8,4.5v0.4c-1.1,1.2-2,2.6-2.6,4.1h-1.8V4.5H112.8z"/>
	</g>
	<g>
		<path class="st6" d="M99.5,0v0.7C98.1,0.2,96.6,0,95,0H99.5z"/>
		<polygon class="st6" points="105.5,4.5 108.4,4.5 108.4,0 103.9,0 103.9,3 		"/>
		<rect x="112.9" y="0" class="st6" width="4.5" height="4.5"/>
		<rect x="121.8" y="0" class="st6" width="4.5" height="4.5"/>
		<rect x="130.7" y="0" class="st6" width="4.5" height="4.5"/>
		<rect x="139.6" y="0" class="st6" width="4.5" height="4.5"/>
		<rect x="148.5" y="0" class="st6" width="4.5" height="4.5"/>
		<rect x="157.4" y="0" class="st6" width="4.5" height="4.5"/>
		<rect x="166.3" y="0" class="st6" width="4.5" height="4.5"/>
		<path class="st6" d="M179.7,0v1.5c-1.5,0.8-2.9,1.8-4.1,3h-0.3V0H179.7z"/>
		<polygon class="st6" points="108.4,8.9 112.9,8.9 112.9,4.5 108.4,4.5 108.4,8.8 		"/>
		<rect x="117.3" y="4.5" class="st6" width="4.5" height="4.5"/>
		<rect x="126.2" y="4.5" class="st6" width="4.5" height="4.5"/>
		<rect x="135.1" y="4.5" class="st6" width="4.5" height="4.5"/>
		<rect x="144" y="4.5" class="st6" width="4.5" height="4.5"/>
		<rect x="153" y="4.5" class="st6" width="4.5" height="4.5"/>
		<rect x="161.9" y="4.5" class="st6" width="4.5" height="4.5"/>
		<path class="st6" d="M175.2,4.5v0.4c-1.1,1.2-2,2.6-2.6,4.1h-1.8V4.5H175.2z"/>
	</g>
	<g>
		<path class="st6" d="M161.9,0v0.7C160.5,0.2,159,0,157.4,0H161.9z"/>
		<polygon class="st6" points="167.9,4.5 170.8,4.5 170.8,0 166.3,0 166.3,3 		"/>
		<rect x="175.2" y="0" class="st6" width="4.5" height="4.5"/>
		<rect x="184.2" y="0" class="st6" width="4.5" height="4.5"/>
		<rect x="193.1" y="0" class="st6" width="4.5" height="4.5"/>
		<rect x="202" y="0" class="st6" width="4.5" height="4.5"/>
		<rect x="210.9" y="0" class="st6" width="4.5" height="4.5"/>
		<rect x="219.8" y="0" class="st6" width="4.5" height="4.5"/>
		<rect x="228.7" y="0" class="st6" width="4.5" height="4.5"/>
		<path class="st6" d="M242.1,0v1.5c-1.5,0.8-2.9,1.8-4.1,3h-0.3V0H242.1z"/>
		<polygon class="st6" points="170.8,8.9 175.2,8.9 175.2,4.5 170.8,4.5 170.8,8.8 		"/>
		<rect x="179.7" y="4.5" class="st6" width="4.5" height="4.5"/>
		<rect x="188.6" y="4.5" class="st6" width="4.5" height="4.5"/>
		<rect x="197.5" y="4.5" class="st6" width="4.5" height="4.5"/>
		<rect x="206.4" y="4.5" class="st6" width="4.5" height="4.5"/>
		<rect x="215.4" y="4.5" class="st6" width="4.5" height="4.5"/>
		<rect x="224.3" y="4.5" class="st6" width="4.5" height="4.5"/>
		<path class="st6" d="M237.6,4.5v0.4c-1.1,1.2-2,2.6-2.6,4.1h-1.8V4.5H237.6z"/>
	</g>
</g>
</svg>
