<?xml version="1.0" encoding="utf-8"?>
<!-- Generator: Adobe Illustrator 25.2.0, SVG Export Plug-In . SVG Version: 6.00 Build 0)  -->
<svg version="1.1" id="Layer_1" xmlns="http://www.w3.org/2000/svg" xmlns:xlink="http://www.w3.org/1999/xlink" x="0px" y="0px"
	 viewBox="0 0 95.4 122.9" style="enable-background:new 0 0 95.4 122.9;" xml:space="preserve">
<style type="text/css">
	.st0{fill:#E8E8E8;}
	.st1{fill:#949494;}
</style>
<g>
	<g>
		<g>
			<polygon class="st0" points="9.3,119.6 87.7,119.6 93.3,98.2 91,87.1 83.9,85.3 76.5,90.8 74.7,98.2 62.4,94.6 40.5,92.3 
				27.7,96.2 21.6,98.2 16.5,88.3 10.6,85.3 4.5,87.1 1.7,94.6 4.5,113 			"/>
			<polygon class="st0" points="14.4,85.3 14.4,40.5 16.5,33.6 21.9,29.7 33.6,27.2 66.7,27.2 76.2,32 80.1,38.2 80.1,85.3 
				74.7,98.2 59.4,94.6 43.1,93.1 31.4,94.6 23.1,98.2 			"/>
			<rect x="29.6" y="2.6" class="st0" width="35.9" height="21.1"/>
		</g>
	</g>
	<g>
		<path class="st1" d="M36,0h23.1c1.2,0,2.4,0.2,3.5,0.7c1.1,0.5,2.1,1.1,2.9,2c0.8,0.8,1.5,1.8,2,2.9c0.4,1.1,0.7,2.2,0.7,3.5v10.1
			c0,1-0.2,2.1-0.5,3c-0.3,0.8-0.7,1.6-1.2,2.2c1.9,0.3,3.7,0.9,5.4,1.7c1.9,0.9,3.6,2.2,5.1,3.6c3.4,3.4,5.5,8.1,5.5,13.3v40.2
			c0.7-0.2,1.5-0.4,2.2-0.5c0.9-0.1,1.7-0.1,2.6,0c1.1,0.2,2.2,0.6,3.2,1.2c0.9,0.6,1.8,1.4,2.5,2.4c1.4,2,2.4,5,2.4,9
			c0,3.5-0.6,7.8-2.1,12.9l-2.1,7c-0.2,0.5-0.3,1-0.4,1.3c-0.1,0.4-0.2,0.7-0.3,1c-0.2,0.8-0.3,1.4-0.5,1.9c-0.2,0.5-0.5,1-0.9,1.4
			c-1.1,1.1-2.3,1.1-4.9,1.1h-0.5c-18.6,2.2-52.2-0.3-72.6,0c-2.4,0-3.6,0-4.7-1L6.2,121c-1-0.9-1.2-1.8-1.5-3.7l0,0
			c-0.1-0.3-0.1-0.7-0.2-1.1s-0.2-0.9-0.3-1.4l-1.7-6.9c-0.2-0.7-0.3-1.3-0.5-1.8l0-0.1C1,102.9,0.1,99.5,0,96.1
			c-0.1-3.4,0.5-6.8,2.8-9.7c0.5-0.7,1.2-1.3,1.8-1.8s1.4-0.9,2.2-1.2c0.7-0.2,1.5-0.4,2.3-0.4c0.8,0,1.6,0,2.4,0.2
			c0.2,0,0.3,0.1,0.5,0.1l0.1,0V43.1c0-2.5,0.5-5,1.4-7.2c1-2.3,2.4-4.4,4.1-6.1c1.5-1.5,3.3-2.8,5.3-3.8c1.8-0.8,3.7-1.4,5.7-1.6
			c-0.5-0.7-0.9-1.4-1.1-2.2c-0.3-0.9-0.5-1.9-0.5-3V9.1c0-1.2,0.2-2.4,0.7-3.5c0.5-1.1,1.1-2.1,2-2.9l0,0c0.8-0.8,1.8-1.5,2.9-2
			C33.6,0.2,34.8,0,36,0L36,0z M62.6,47c0.3-0.5,0.9-0.8,1.4-1c0.6-0.1,1.2,0,1.7,0.3l0,0c0.5,0.3,0.8,0.8,0.9,1.4s0,1.2-0.3,1.7
			l0,0c-1.5,2.3-2.8,4.6-4,7.2c-1.2,2.5-2.2,5.1-3.1,7.9c-0.8,2.8-1.5,5.7-2,8.8c-0.5,3.1-0.7,6.3-0.7,9.8c0,0.6-0.2,1.2-0.7,1.6
			c-0.4,0.4-1,0.7-1.6,0.7s-1.2-0.2-1.6-0.7l0,0c-0.4-0.4-0.6-1-0.6-1.6c0-3.7,0.3-7.1,0.8-10.4c0.5-3.3,1.2-6.4,2.1-9.4
			c0.9-3,2-5.8,3.3-8.5C59.5,52,61,49.5,62.6,47L62.6,47z M28.9,49.5L28.9,49.5c-0.4-0.6-0.5-1.2-0.3-1.7c0.1-0.5,0.4-1.1,0.9-1.4
			l0.1,0c0.5-0.3,1.1-0.4,1.6-0.3c0.6,0.1,1.1,0.5,1.4,1c1.6,2.5,3.1,5,4.3,7.7c1.3,2.7,2.4,5.5,3.3,8.5c0.9,3,1.6,6.1,2.1,9.4
			c0.5,3.3,0.7,6.8,0.8,10.4c0,0.6-0.2,1.2-0.7,1.6c-0.4,0.4-1,0.7-1.6,0.7c-0.6,0-1.2-0.2-1.6-0.7c-0.4-0.4-0.7-1-0.7-1.6
			c0-3.4-0.2-6.7-0.7-9.8c-0.5-3.1-1.1-6-2-8.8c-0.8-2.8-1.9-5.4-3.1-7.9C31.7,54.1,30.4,51.8,28.9,49.5L28.9,49.5z M78,85.9V43.1
			c0-1.9-0.4-3.8-1.1-5.5c-0.7-1.8-1.8-3.3-3.1-4.7c-1.3-1.3-2.9-2.4-4.7-3.1c-1.7-0.7-3.5-1.1-5.5-1.1H30.9c-1.9,0-3.8,0.4-5.5,1.1
			c-1.8,0.7-3.3,1.8-4.7,3.1s-2.4,2.9-3.1,4.7c-0.7,1.7-1.1,3.5-1.1,5.5v42.7c1.3,1.1,2.6,2.6,3.8,4.4c1.1,1.7,2.2,3.7,3.1,6
			c3.6-1.8,7.2-3.1,11-4c3.9-0.9,7.9-1.3,12.1-1.3c4.1,0,8.3,0.5,12.7,1.4c4.2,0.9,8.5,2.2,12.9,3.9c0.4-2.1,1.2-4,2.1-5.6
			C75.3,88.7,76.6,87.2,78,85.9L78,85.9z M13.4,89.1c-0.2-0.1-0.4-0.2-0.5-0.3c-0.2-0.1-0.3-0.3-0.4-0.4c-0.3-0.2-0.7-0.4-1-0.5
			c-0.3-0.2-0.7-0.3-1-0.3c-0.4-0.1-0.8-0.1-1.1-0.1c-0.4,0-0.7,0.1-1,0.2c-0.4,0.1-0.7,0.3-1,0.6s-0.6,0.6-0.9,0.9
			c-1.6,2.1-2,4.6-1.8,7.3c0.2,2.8,1,5.7,1.7,8.3l0,0.1c0.2,0.7,0.4,1.4,0.5,1.8l1.7,6.9c0.2,1,0.4,1.9,0.6,2.7l0,0
			c0.1,0.5,0.2,0.9,0.2,1.1c0,0,0,0,0,0.1c0,0,0.1,0,0.1,0c0.3,0,0.8-0.1,1.6-0.1l1.4,0h71.1l0.1,0h0.5c0.9,0,1.4,0,1.7,0.1
			c0.1,0,0.1,0,0.1,0v0c0-0.2,0.1-0.5,0.2-0.9l0,0c0.2-0.7,0.4-1.6,0.7-2.6l2.1-7c1.3-4.5,1.9-8.1,2-11c0.1-3.2-0.6-5.6-1.6-7
			c-0.4-0.5-0.8-0.9-1.2-1.2c-0.5-0.3-1-0.5-1.5-0.6c-0.6-0.1-1.2-0.1-1.8,0.1c-0.6,0.1-1.3,0.4-1.9,0.7c-1.7,0.9-3.4,2.5-4.6,4.6
			c-1.1,1.9-1.9,4.2-2.1,7l0,0.1c0,0.1,0,0.2-0.1,0.3v0c0,0.1-0.1,0.2-0.1,0.3c-0.2,0.6-0.7,1-1.2,1.2s-1.1,0.2-1.7,0
			c-4.7-2-9.3-3.5-13.7-4.5c-4.4-1-8.7-1.6-12.9-1.6c-4.1,0-8.1,0.4-12,1.4c-3.9,1-7.6,2.5-11.2,4.5l-0.2,0.1
			c-0.1,0-0.1,0.1-0.2,0.1l0,0c-0.6,0.2-1.2,0.1-1.7-0.1c-0.5-0.2-0.9-0.7-1.1-1.3c-0.9-2.6-2-4.8-3-6.6
			C15.9,91.6,14.7,90.1,13.4,89.1L13.4,89.1z M86.1,117.6L86.1,117.6C86.1,117.6,86.1,117.6,86.1,117.6L86.1,117.6z M59.1,4.5H36
			c-0.6,0-1.2,0.1-1.7,0.3c-0.6,0.2-1.1,0.6-1.5,1l0,0c-0.4,0.4-0.8,0.9-1,1.5c-0.2,0.5-0.4,1.1-0.4,1.7v10.1c0,1.2,0.5,2.4,1.3,3.2
			l0,0c0.8,0.8,2,1.3,3.2,1.3h23.1c1.2,0,2.4-0.5,3.2-1.3l0,0c0.8-0.8,1.3-2,1.3-3.2V9.1c0-0.6-0.1-1.2-0.3-1.7
			c-0.2-0.6-0.6-1.1-1-1.5c-0.4-0.4-0.9-0.8-1.5-1C60.3,4.6,59.7,4.5,59.1,4.5L59.1,4.5z"/>
	</g>
</g>
</svg>
