<?xml version="1.0" encoding="utf-8"?>
<!-- Generator: Adobe Illustrator 25.2.0, SVG Export Plug-In . SVG Version: 6.00 Build 0)  -->
<svg version="1.1" id="Layer_1" xmlns="http://www.w3.org/2000/svg" xmlns:xlink="http://www.w3.org/1999/xlink" x="0px" y="0px"
	 viewBox="0 0 95.4 122.9" style="enable-background:new 0 0 95.4 122.9;" xml:space="preserve">
<style type="text/css">
	.st0{fill:#FFA48D;}
	.st1{fill:#FF2D16;}
</style>
<g id="Group_218" transform="translate(52.02 0.018) rotate(90)">
	<g id="Group_215" transform="translate(0.701 1.117)">
		<g id="Group_214">
			<path id="Path_161" class="st0" d="M118.9,41.5l0-78.4l-21.4-5.6l-11,2.4L84.6-33l5.4,7.4l7.4,1.8l-3.6,12.2l-2.3,22l3.9,12.8
				l2,6.1l-9.8,5.1l-3,5.9l1.8,6.1l7.4,2.8l18.4-2.8L118.9,41.5z"/>
			<path id="Path_162" class="st0" d="M84.6,36.4l-44.9,0l-6.9-2L29,29l-2.6-11.7l0-33.1l4.9-9.5l6.1-3.8l47.2,0l12.8,5.4L93.8-8.5
				L92.3,7.8l1.5,11.7l3.6,8.3L84.6,36.4z"/>
			
				<rect id="Rectangle_31" x="-5.5" y="-7.2" transform="matrix(2.535182e-06 1 -1 2.535182e-06 15.7933 -9.1497)" class="st0" width="35.9" height="21.1"/>
		</g>
	</g>
	<g id="Group_216" transform="translate(-0.018)">
		<path id="Path_163" class="st1" d="M0,16L0-7.1c0-5,4.1-9.1,9.1-9.1l10.1,0c1,0,2,0.2,3,0.5c0.8,0.3,1.6,0.7,2.2,1.2
			c0.3-1.9,0.9-3.7,1.7-5.4c0.9-1.9,2.1-3.6,3.6-5.1c3.5-3.5,8.3-5.5,13.3-5.5l40.2,0c-0.2-0.7-0.4-1.5-0.5-2.2
			c-0.1-0.9-0.1-1.7,0-2.6c0.2-1.1,0.6-2.2,1.2-3.2c0.6-1,1.4-1.8,2.4-2.5c2.7-1.7,5.8-2.5,9-2.4c4.4,0.1,8.7,0.8,12.9,2.1l7,2.1
			c0.5,0.2,1,0.3,1.3,0.4c0.4,0.1,0.7,0.2,1,0.3c0.6,0.1,1.3,0.3,1.9,0.5c0.5,0.2,1,0.5,1.4,0.9c1,1.1,1,2.3,1,4.9v0.5
			c2.2,18.6-0.3,52.1,0,72.6c0,2.4,0,3.6-1,4.7l0,0.1c-1,0.9-2.3,1.5-3.7,1.5l0,0c-0.3,0.1-0.7,0.1-1.1,0.2
			c-0.4,0.1-0.9,0.2-1.4,0.3l-6.9,1.7c-0.7,0.2-1.3,0.3-1.8,0.5l-0.1,0c-3.2,1-6.5,1.6-9.9,1.9c-3.5,0.3-6.9-0.7-9.7-2.8
			c-0.7-0.5-1.3-1.1-1.8-1.8c-0.5-0.7-0.9-1.4-1.2-2.2c-0.3-0.7-0.4-1.5-0.4-2.3c0-0.8,0-1.6,0.2-2.4l0.1-0.5v0l-40.3,0
			c-2.5,0-4.9-0.5-7.2-1.4c-6.3-2.6-10.7-8.4-11.5-15.1c-0.7,0.5-1.4,0.9-2.2,1.1c-1,0.3-2,0.5-3,0.5l-10.1,0c-2.4,0-4.7-1-6.4-2.7
			l0,0c-0.8-0.8-1.5-1.8-2-2.9C0.2,18.4,0,17.2,0,16z M47-10.6c-1-0.7-1.3-2.1-0.6-3.1l0,0c0.3-0.5,0.8-0.8,1.4-0.9
			c0.6-0.1,1.2,0,1.7,0.3l0,0c2.3,1.5,4.7,2.9,7.1,4c2.6,1.2,5.2,2.2,7.9,3.1c2.9,0.9,5.8,1.5,8.8,1.9c3.2,0.5,6.5,0.7,9.8,0.7
			c0.6,0,1.2,0.2,1.6,0.7c0.9,0.9,0.9,2.3,0,3.2c0,0,0,0,0,0l0,0c-0.4,0.4-1,0.6-1.6,0.6c-3.5,0-7-0.3-10.4-0.8
			C69.5-1.3,66.3-2,63.2-3c-2.9-0.9-5.8-2-8.5-3.3C52.1-7.5,49.5-9,47-10.6z M49.5,23.1L49.5,23.1c-1.1,0.7-2.4,0.4-3.1-0.6l0-0.1
			C46,22,45.9,21.4,46,20.8c0.1-0.6,0.5-1.1,1-1.4c2.5-1.6,5-3.1,7.7-4.3c2.8-1.3,5.6-2.4,8.5-3.3c3.1-0.9,6.2-1.6,9.4-2.1
			c3.5-0.5,6.9-0.7,10.4-0.7c1.2,0,2.2,1,2.2,2.2c0,0.6-0.2,1.2-0.7,1.6c-0.4,0.4-1,0.7-1.6,0.7c-3.3,0-6.5,0.2-9.8,0.7
			c-3,0.4-5.9,1.1-8.8,1.9c-2.7,0.8-5.4,1.9-7.9,3.1C54.1,20.3,51.8,21.6,49.5,23.1L49.5,23.1z M85.9-26l-42.8,0
			c-7.9,0-14.4,6.4-14.4,14.4l0,32.8c0,7.9,6.4,14.4,14.4,14.4l42.7,0c1.3-1.5,2.8-2.8,4.4-3.8c1.9-1.2,3.9-2.3,6-3.1
			c-1.8-3.5-3.1-7.2-4-11c-0.9-4-1.4-8-1.3-12c0-4.3,0.5-8.5,1.4-12.7c1-4.4,2.3-8.7,3.9-12.9c-2-0.4-3.9-1.1-5.6-2.1
			C88.8-23.2,87.2-24.5,85.9-26z M89.1,38.5c-0.1,0.2-0.2,0.4-0.3,0.5c-0.1,0.2-0.3,0.3-0.4,0.4c-0.2,0.3-0.4,0.7-0.5,1
			c-0.1,0.3-0.3,0.7-0.3,1c-0.1,0.4-0.1,0.7-0.1,1.1c0,0.8,0.3,1.5,0.7,2.1c0.3,0.3,0.6,0.7,0.9,0.9c2.1,1.5,4.8,2.1,7.3,1.8
			c2.8-0.3,5.6-0.8,8.3-1.7l0.1,0c0.7-0.2,1.4-0.4,1.8-0.5l6.9-1.7c1-0.3,1.9-0.4,2.7-0.6h0c0.5-0.1,0.9-0.2,1.1-0.2c0,0,0,0,0.1,0
			c0,0,0-0.1,0-0.1c0-0.3-0.1-0.8-0.1-1.6l0-1.4l0-71.1v-0.1v-0.6c0-0.9,0-1.4,0-1.7c0,0,0-0.1,0-0.1h0c-0.2,0-0.5-0.1-0.9-0.2h0
			c-0.7-0.2-1.6-0.4-2.6-0.7l-7-2.1c-3.6-1.2-7.3-1.8-11-2c-2.5-0.2-4.9,0.4-7,1.6c-0.5,0.3-0.9,0.7-1.2,1.2c-0.3,0.5-0.5,1-0.6,1.5
			c-0.1,0.6-0.1,1.2,0.1,1.8c0.1,0.7,0.4,1.3,0.7,1.9c1.1,1.9,2.6,3.5,4.6,4.6c2.1,1.2,4.5,1.9,7,2.1h0.1c0.1,0,0.2,0,0.3,0l0,0
			c0.1,0,0.2,0.1,0.3,0.1c0.5,0.2,1,0.7,1.2,1.2c0.2,0.5,0.2,1.2,0,1.7c-1.9,4.4-3.4,9-4.5,13.7c-1,4.2-1.5,8.5-1.6,12.9
			c0,4,0.4,8.1,1.4,12c1,3.9,2.5,7.7,4.5,11.2l0.1,0.2c0,0.1,0.1,0.1,0.1,0.2v0c0.4,1.2-0.2,2.4-1.4,2.8c-2.3,0.8-4.5,1.8-6.6,3
			C91.8,35.9,90.3,37.1,89.1,38.5L89.1,38.5z M117.5-34.1L117.5-34.1L117.5-34.1z M4.5-7.1l0,23.1c0,0.6,0.1,1.2,0.3,1.7
			c0.2,0.6,0.6,1.1,1,1.5l0,0c0.4,0.4,0.9,0.7,1.5,1c0.6,0.2,1.1,0.3,1.7,0.3l10.1,0c1.2,0,2.4-0.5,3.2-1.3l0,0
			c0.8-0.8,1.3-2,1.3-3.2l0-23.1c0-1.2-0.5-2.4-1.3-3.2l0,0c-0.8-0.8-2-1.3-3.2-1.3l-10.1,0c-1.2,0-2.4,0.5-3.2,1.3
			c-0.4,0.4-0.8,0.9-1,1.5C4.6-8.3,4.5-7.7,4.5-7.1z"/>
	</g>
</g>
</svg>
