<?xml version="1.0" encoding="utf-8"?>
<!-- Generator: Adobe Illustrator 25.2.0, SVG Export Plug-In . SVG Version: 6.00 Build 0)  -->
<svg version="1.1" id="Layer_1" xmlns="http://www.w3.org/2000/svg" xmlns:xlink="http://www.w3.org/1999/xlink" x="0px" y="0px"
	 viewBox="0 0 92.5 119.1" style="enable-background:new 0 0 92.5 119.1;" xml:space="preserve">
<style type="text/css">
	.st0{fill:#FCDFB2;}
	.st1{fill:#F7A527;}
</style>
<g id="Group_223" transform="translate(26.095 0.018) rotate(90)">
	<g id="Group_215" transform="translate(0.343 0.56)">
		<g id="Group_214">
			<path id="Path_161" class="st0" d="M115.5,16.5v-76l-20.8-5.4l-10.7,2.3l-1.8,6.8l5.3,7.2l7.2,1.7L91.3-35l-2.2,21.3l3.8,12.4
				l1.9,5.9l-9.5,4.9l-2.9,5.7l1.7,5.9l7.2,2.7l17.8-2.7L115.5,16.5z"/>
			<path id="Path_162" class="st0" d="M82.3,11.5H38.9l-6.7-2l-3.7-5.2L26-7v-32.1l4.7-9.2l5.9-3.7h45.7l12.4,5.2l-3.5,14.8
				l-1.5,15.8l1.5,11.3l3.5,8L82.3,11.5z"/>
			
				<rect id="Rectangle_31" x="-5" y="-30.8" transform="matrix(2.535182e-06 1 -1 2.535182e-06 -8.1387 -32.9866)" class="st0" width="34.8" height="20.5"/>
		</g>
	</g>
	<g id="Group_216" transform="translate(-0.018)">
		<path id="Path_163" class="st1" d="M0-8.8v-22.4C0-36.1,3.9-40,8.8-40h9.8c1,0,2,0.2,2.9,0.5c0.8,0.3,1.5,0.7,2.2,1.1
			c0.3-1.8,0.8-3.6,1.6-5.2c0.9-1.8,2.1-3.5,3.5-4.9c3.4-3.4,8.1-5.4,12.9-5.4h39c-0.2-0.7-0.4-1.4-0.5-2.1c-0.1-0.8-0.1-1.7,0-2.5
			c0.2-1.1,0.6-2.1,1.1-3.1c0.6-1,1.4-1.8,2.3-2.4c2.6-1.7,5.6-2.5,8.7-2.4c4.3,0.1,8.5,0.8,12.5,2.1l6.8,2c0.5,0.2,0.9,0.3,1.3,0.4
			c0.4,0.1,0.7,0.2,1,0.3c0.6,0.1,1.2,0.3,1.8,0.5c0.5,0.2,1,0.5,1.4,0.9c1,1.1,1,2.2,1,4.8v0.5c2.2,18-0.3,50.5,0,70.4
			c0,2.4,0,3.5-0.9,4.6l-0.1,0.1c-1,0.9-2.2,1.4-3.5,1.5l0,0c-0.3,0.1-0.7,0.1-1,0.2c-0.4,0.1-0.8,0.2-1.4,0.3l-6.7,1.7
			c-0.7,0.2-1.2,0.3-1.8,0.5h-0.1c-3.1,0.9-6.3,1.5-9.6,1.8c-3.4,0.3-6.7-0.7-9.4-2.7c-0.7-0.5-1.2-1.1-1.7-1.8
			c-0.5-0.6-0.9-1.4-1.1-2.1c-0.2-0.7-0.4-1.5-0.4-2.2c0-0.8,0-1.5,0.2-2.3l0.1-0.5v-0.1h-39c-2.4,0-4.8-0.5-7-1.4
			C28.7,10.6,24.4,5,23.6-1.6c-0.7,0.5-1.4,0.8-2.1,1.1C20.5-0.2,19.6,0,18.6,0H8.8C6.5,0,4.2-0.9,2.6-2.6l0,0
			C1.8-3.4,1.1-4.3,0.7-5.4C0.2-6.5,0-7.6,0-8.8z M45.6-34.6c-1-0.7-1.3-2-0.6-3v0c0.3-0.5,0.8-0.8,1.4-0.9c0.6-0.1,1.1,0,1.6,0.3
			l0,0c2.2,1.5,4.5,2.8,6.9,3.9c2.5,1.2,5,2.2,7.7,3c2.8,0.8,5.6,1.5,8.5,1.9c3.1,0.5,6.3,0.7,9.5,0.7c0.6,0,1.1,0.2,1.5,0.6
			c0.9,0.8,0.9,2.2,0,3.1c0,0,0,0,0,0l0,0c-0.4,0.4-1,0.6-1.5,0.6c-3.4,0-6.8-0.2-10.1-0.7c-3.1-0.4-6.1-1.1-9.1-2
			c-2.8-0.9-5.6-1.9-8.3-3.2C50.5-31.6,48-33,45.6-34.6L45.6-34.6z M48-1.9L48-1.9c-1,0.7-2.3,0.4-3-0.6l0-0.1
			c-0.3-0.5-0.4-1-0.3-1.6c0.1-0.6,0.4-1,0.9-1.4c2.4-1.6,4.9-3,7.5-4.2c2.7-1.3,5.4-2.3,8.3-3.2c3-0.9,6-1.6,9.1-2
			c3.4-0.5,6.7-0.7,10.1-0.7c1.2,0,2.2,1,2.2,2.2c0,0.6-0.2,1.1-0.6,1.5c-0.4,0.4-1,0.6-1.5,0.6c-3.2,0-6.3,0.2-9.5,0.7
			c-2.9,0.4-5.7,1-8.5,1.9c-2.6,0.8-5.2,1.8-7.7,3C52.5-4.7,50.2-3.4,48-1.9L48-1.9z M83.3-49.5H41.7c-7.7,0-13.9,6.2-13.9,13.9
			v31.8c0,7.7,6.2,13.9,13.9,13.9h41.4c1.2-1.4,2.7-2.7,4.3-3.7c1.8-1.2,3.8-2.2,5.8-3c-1.7-3.4-3-7-3.9-10.7
			C88.4-11.1,88-15.1,88-19c0-4.1,0.5-8.2,1.4-12.3c0.9-4.3,2.2-8.5,3.8-12.5c-1.9-0.4-3.7-1.1-5.4-2C86.1-46.8,84.5-48,83.3-49.5
			L83.3-49.5z M86.4,13.1c-0.1,0.2-0.2,0.3-0.3,0.5c-0.1,0.2-0.3,0.3-0.4,0.4c-0.2,0.3-0.4,0.6-0.5,1c-0.1,0.3-0.2,0.6-0.3,1
			c-0.1,0.4-0.1,0.7-0.1,1.1c0,0.7,0.3,1.4,0.7,2c0.3,0.3,0.6,0.7,0.9,0.9c2.1,1.4,4.6,2.1,7.1,1.7c2.7-0.3,5.4-0.8,8.1-1.6l0.1,0
			c0.7-0.2,1.3-0.3,1.8-0.5l6.7-1.7c1-0.2,1.9-0.5,2.6-0.6h0c0.5-0.1,0.8-0.2,1.1-0.2c0,0,0,0,0.1,0c0,0,0-0.1,0-0.1
			c0-0.3-0.1-0.8-0.1-1.6v-1.4v-68.9v-0.1v-0.5c0-0.8,0-1.4,0.1-1.7c0,0,0-0.1,0-0.1h0c-0.2,0-0.5-0.1-0.9-0.2l0,0
			c-0.7-0.2-1.6-0.4-2.5-0.7l-6.8-2c-3.5-1.1-7-1.8-10.7-1.9c-2.4-0.2-4.8,0.4-6.8,1.6c-0.5,0.3-0.8,0.7-1.1,1.2
			c-0.3,0.4-0.5,0.9-0.6,1.5c-0.1,0.6-0.1,1.2,0.1,1.7c0.1,0.7,0.4,1.3,0.7,1.9c1,1.9,2.6,3.4,4.4,4.5c2.1,1.2,4.4,1.9,6.7,2h0.1
			c0.1,0,0.2,0,0.3,0.1l0,0c0.1,0,0.2,0.1,0.3,0.1c0.5,0.2,1,0.6,1.2,1.2c0.2,0.5,0.2,1.1,0,1.7c-1.8,4.3-3.3,8.7-4.4,13.3
			c-1,4.1-1.5,8.3-1.5,12.5c0,3.9,0.4,7.8,1.4,11.6c1,3.8,2.5,7.4,4.4,10.8l0.1,0.2c0,0.1,0.1,0.1,0.1,0.2l0,0
			C98.7,5,98.1,6.2,97,6.6c-2.2,0.8-4.4,1.7-6.4,3C89,10.5,87.6,11.7,86.4,13.1L86.4,13.1z M113.9-57.3L113.9-57.3L113.9-57.3z
			 M4.4-31.2v22.4c0,0.6,0.1,1.2,0.3,1.7c0.2,0.5,0.5,1,1,1.4l0,0C6.1-5.3,6.6-5,7.1-4.7c0.5,0.2,1.1,0.3,1.7,0.3h9.8
			c1.2,0,2.3-0.5,3.1-1.3l0,0C22.5-6.5,23-7.6,23-8.8v-22.4c0-1.2-0.5-2.3-1.3-3.1l0,0c-0.8-0.8-1.9-1.3-3.1-1.3H8.8
			c-1.2,0-2.3,0.5-3.1,1.3c-0.4,0.4-0.7,0.9-1,1.4C4.5-32.3,4.4-31.8,4.4-31.2L4.4-31.2z"/>
	</g>
</g>
</svg>
