<?xml version="1.0" encoding="utf-8"?>
<!-- Generator: Adobe Illustrator 25.2.0, SVG Export Plug-In . SVG Version: 6.00 Build 0)  -->
<svg version="1.1" id="Layer_1" xmlns="http://www.w3.org/2000/svg" xmlns:xlink="http://www.w3.org/1999/xlink" x="0px" y="0px"
	 viewBox="0 0 68.7 68.7" style="enable-background:new 0 0 68.7 68.7;" xml:space="preserve">
<style type="text/css">
	.st0{fill:#949494;}
</style>
<g id="steering-wheel" transform="translate(-2.091 -2.094)">
	<path id="Path_164" class="st0" d="M55,65.1c-0.6,0-1-0.5-1-1c0-0.3,0.2-0.6,0.4-0.7c0.9-0.6,1.7-1.2,2.3-1.7
		c0.5-0.3,1.1-0.1,1.4,0.4c0.2,0.4,0.1,0.8-0.1,1.1c-0.7,0.5-1.4,1.1-2.4,1.8C55.4,65,55.2,65.1,55,65.1z"/>
	<path id="Path_165" class="st0" d="M36.4,70.8c-19,0-34.3-15.4-34.3-34.4c0-19,15.4-34.3,34.4-34.3c19,0,34.3,15.4,34.3,34.4
		c0,4.4-0.8,8.7-2.5,12.8c-0.1,0.5-0.6,0.9-1.2,0.8c-0.5-0.1-0.9-0.6-0.8-1.2c0-0.1,0.1-0.2,0.1-0.3C73.2,31.9,65.1,13,48.5,6.3
		S13,7.7,6.3,24.3s1.3,35.5,17.9,42.2c7.7,3.1,16.3,3.1,24,0.1c0.5-0.2,1.1,0.1,1.3,0.6c0,0.1,0.1,0.2,0.1,0.3
		c0,0.4-0.3,0.8-0.7,0.9C44.9,70,40.7,70.8,36.4,70.8L36.4,70.8z"/>
	<path id="Path_166" class="st0" d="M62.2,58.5c-0.6,0-1-0.5-1-1c0-0.2,0.1-0.4,0.2-0.6c0.6-0.7,1.2-1.5,1.7-2.3
		c0.2-0.5,0.8-0.7,1.3-0.5c0.5,0.2,0.7,0.8,0.5,1.3c0,0.1-0.1,0.2-0.2,0.3c-0.6,0.8-1.2,1.6-1.8,2.4C62.8,58.4,62.5,58.5,62.2,58.5z
		"/>
	<path id="Path_167" class="st0" d="M36.4,63.9c-15.2,0-27.5-12.3-27.5-27.5c0-15.2,12.3-27.5,27.5-27.5c15.2,0,27.5,12.3,27.5,27.5
		v0C63.9,51.6,51.6,63.9,36.4,63.9z M36.4,10.8c-14.1,0-25.5,11.4-25.5,25.5s11.4,25.5,25.5,25.5s25.5-11.4,25.5-25.5
		S50.5,10.8,36.4,10.8C36.4,10.8,36.4,10.8,36.4,10.8z"/>
	<path id="Path_168" class="st0" d="M10.6,31.3c-0.5,0-1-0.5-0.9-1.1c0-0.4,0.3-0.7,0.6-0.8C27.1,23,45.7,23,62.5,29.3
		c0.5,0.1,0.9,0.6,0.8,1.1s-0.6,0.9-1.1,0.8c-0.1,0-0.2-0.1-0.3-0.1C45.4,25,27.3,25,10.9,31.2C10.8,31.2,10.7,31.3,10.6,31.3
		L10.6,31.3z"/>
	<path id="Path_169" class="st0" d="M42.3,63.2c-0.6,0-1-0.4-1-1v-3.4c0-11.3,9.2-20.5,20.5-20.5h0.9c0.5-0.1,1.1,0.3,1.2,0.8
		s-0.3,1.1-0.8,1.2c-0.1,0-0.2,0-0.3,0h-0.9c-10.2,0-18.5,8.3-18.5,18.5v3.4C43.3,62.8,42.8,63.2,42.3,63.2L42.3,63.2z"/>
	<path id="Path_170" class="st0" d="M30.5,63.2c-0.6,0-1-0.4-1-1v-3.4c0-10.2-8.3-18.5-18.5-18.5H10c-0.5-0.1-0.9-0.6-0.8-1.2
		c0.1-0.4,0.4-0.7,0.8-0.8H11c11.3,0,20.5,9.2,20.5,20.5v3.4C31.5,62.8,31,63.2,30.5,63.2L30.5,63.2z"/>
	<path id="Path_171" class="st0" d="M36.4,43.7c-3.3,0-5.9-2.6-5.9-5.9c0-3.3,2.6-5.9,5.9-5.9s5.9,2.6,5.9,5.9l0,0
		C42.3,41,39.6,43.7,36.4,43.7z M36.4,33.8c-2.2,0-3.9,1.8-3.9,3.9s1.8,3.9,3.9,3.9s3.9-1.8,3.9-3.9l0,0
		C40.3,35.6,38.6,33.8,36.4,33.8z"/>
</g>
</svg>
