<?xml version="1.0" encoding="utf-8"?>
<!-- Generator: Adobe Illustrator 23.0.2, SVG Export Plug-In . SVG Version: 6.00 Build 0)  -->
<svg version="1.1" id="Layer_1" xmlns="http://www.w3.org/2000/svg" xmlns:xlink="http://www.w3.org/1999/xlink" x="0px" y="0px"
	 viewBox="0 0 383 383" style="enable-background:new 0 0 383 383;" xml:space="preserve">
<style type="text/css">
	.st0{fill:#DC3645;}
	.st1{fill:#FFFFFF;}
</style>
<circle class="st0" cx="191.5" cy="191.5" r="191.5"/>
<path class="st1" d="M204.6,264.1c0,7.5-6.1,13.5-13.5,13.5c-7.5,0-13.5-6.1-13.5-13.5c0-7.5,6.1-13.5,13.5-13.5
	C198.6,250.6,204.6,256.7,204.6,264.1z M163.7,124.3c9-2,18.4-3.1,27.8-3.1c34.8,0,67,14.1,90.9,39.7c1.6,1.7,3.8,2.6,6,2.6
	c2,0,4-0.7,5.6-2.2c3.3-3.1,3.5-8.3,0.4-11.6c-27-29-63.5-44.9-102.9-44.9c-10.6,0-21.2,1.2-31.4,3.5c-4.4,1-7.2,5.4-6.2,9.8
	C154.9,122.6,159.3,125.4,163.7,124.3z M199.4,160.7c-0.8,4.5,2.2,8.7,6.6,9.5c17.3,3.1,33.4,11.8,46.5,25c1.6,1.6,3.7,2.4,5.8,2.4
	c2.1,0,4.2-0.8,5.8-2.4c3.2-3.2,3.2-8.4,0-11.6c-15.5-15.6-34.6-25.9-55.3-29.6C204.5,153.3,200.2,156.2,199.4,160.7z M294.2,282.6
	L100.4,88.8c-3.2-3.2-8.4-3.2-11.6,0c-3.2,3.2-3.2,8.4,0,11.6l26.7,26.7c-9.8,6.3-18.8,13.9-26.9,22.6c-3.1,3.3-2.9,8.5,0.4,11.6
	c1.6,1.5,3.6,2.2,5.6,2.2c2.2,0,4.4-0.9,6-2.6c8-8.6,17-16,26.8-21.9l22.6,22.6c-11.5,5.3-22.1,12.8-31.3,22
	c-3.2,3.2-3.2,8.4,0,11.6c1.6,1.6,3.7,2.4,5.8,2.4c2.1,0,4.2-0.8,5.8-2.4c9.5-9.5,20.3-16.6,32.2-21l26.4,26.4
	c-13.5,0.6-27.9,7-38.1,17.1c-3.2,3.2-3.2,8.4-0.1,11.6c1.6,1.6,3.7,2.4,5.8,2.4c2.1,0,4.2-0.8,5.8-2.4c7.6-7.5,18.8-12.4,28.4-12.4
	h0h0.6h0c6.2,0,13.1,2,19.4,5.6c0.1,0,0.2,0.1,0.2,0.1l71.5,71.5c1.6,1.6,3.7,2.4,5.8,2.4s4.2-0.8,5.8-2.4
	C297.4,291,297.4,285.8,294.2,282.6z"/>
</svg>
