<?xml version="1.0" encoding="utf-8"?>
<!-- Generator: Adobe Illustrator 23.0.2, SVG Export Plug-In . SVG Version: 6.00 Build 0)  -->
<svg version="1.1" id="Capa_1" xmlns="http://www.w3.org/2000/svg" xmlns:xlink="http://www.w3.org/1999/xlink" x="0px" y="0px"
	 viewBox="0 0 260.3 503.7" style="enable-background:new 0 0 260.3 503.7;" xml:space="preserve">
<style type="text/css">
	.st0{fill:#EEB700;}
	.st1{fill:#EECF00;}
	.st2{fill:#F0E63E;}
</style>
<g>
	<circle class="st0" cx="130.2" cy="130.2" r="121.5"/>
	<ellipse class="st1" cx="117.2" cy="130.2" rx="108.5" ry="121.5"/>
	<circle class="st0" cx="86.8" cy="95.5" r="26"/>
	<path class="st2" d="M130.2,251.7c2.3,0,4.6-0.2,6.9-0.3c-57-3.6-102.3-56.4-102.3-121.1S80,12.6,137,9c-2.3-0.1-4.6-0.3-6.9-0.3
		C63.1,8.7,8.7,63.1,8.7,130.2S63.1,251.7,130.2,251.7L130.2,251.7z"/>
	<g>
		<path d="M130.2,260.3C58.3,260.3,0,202.1,0,130.2S58.3,0,130.2,0s130.2,58.3,130.2,130.2C260.3,202,202,260.3,130.2,260.3z
			 M130.2,17.4c-62.3,0-112.8,50.5-112.8,112.8S67.9,243,130.2,243S243,192.5,243,130.2C242.9,67.9,192.4,17.4,130.2,17.4z"/>
		<path d="M86.8,130.2c-19.2,0-34.7-15.5-34.7-34.7s15.5-34.7,34.7-34.7s34.7,15.5,34.7,34.7C121.5,114.6,105.9,130.1,86.8,130.2
			L86.8,130.2z M86.8,78.1c-9.6,0-17.4,7.8-17.4,17.4s7.8,17.4,17.4,17.4s17.4-7.8,17.4-17.4C104.1,85.9,96.4,78.1,86.8,78.1
			L86.8,78.1z"/>
		<path d="M130.2,470.9c-2.3,0-4.5-0.8-6.1-2.2c-1.6-1.4-2.5-3.2-2.5-5.2V250.3c0-4.1,3.9-7.4,8.7-7.4s8.7,3.3,8.7,7.4v213.2
			c0,2-0.9,3.8-2.5,5.2C134.7,470.2,132.5,470.9,130.2,470.9L130.2,470.9z"/>
	</g>
</g>
<path d="M179.9,429.3c-4.3-1-8.6,1.6-9.6,5.9s1.6,8.6,5.9,9.6c21.4,5.1,33.8,13.2,33.8,19c0,11-35.5,23.9-79.8,23.9
	c-44.3,0-79.8-12.9-79.8-23.9c0-5.8,12.4-13.9,33.7-19c4.3-1,6.9-5.3,5.9-9.6c-1-4.3-5.3-6.9-9.6-5.9c-28,6.6-46,18.5-46,34.5
	c0,24.2,43.1,39.9,95.7,39.9c52.7,0,95.7-15.7,95.7-39.9C225.9,447.7,207.9,435.9,179.9,429.3z"/>
</svg>
