<svg id="Capa_1" enable-background="new 0 0 512 512" height="512" viewBox="0 0 512 512" width="512" xmlns="http://www.w3.org/2000/svg"><g><path d="m7.5 101v310c0 5.523 4.477 10 10 10h477c5.523 0 10-4.477 10-10v-310c0-5.523-4.477-10-10-10h-477c-5.523 0-10 4.477-10 10z" fill="#ddebfd"/><path d="m494.5 91h-25.746c5.523 0 10 4.477 10 10v283.514c0 6.024-4.883 10.907-10.907 10.907h-450.347c-5.523 0-10-4.477-10-10v25.579c0 5.523 4.477 10 10 10h477c5.523 0 10-4.477 10-10v-310c0-5.523-4.477-10-10-10z" fill="#bed9fd"/><g><path d="m172.312 382.796h-119.984c-1.657 0-3-1.343-3-3v-51.1c0-7.893 6.398-14.291 14.291-14.291h97.403c7.893 0 14.291 6.398 14.291 14.291v51.1c-.001 1.657-1.344 3-3.001 3z" fill="#77d1b3"/><path d="m161.021 314.405h-23.022c7.893 0 14.291 6.398 14.291 14.291v51.1c0 1.657-1.343 3-3 3h23.022c1.657 0 3-1.343 3-3v-51.1c0-7.893-6.398-14.291-14.291-14.291z" fill="#67b59f"/><path d="m172.076 143.73c-8.731-8.734-21.55-12.428-33.899-12.374-16.5.072-34.566 6.935-44.824 20.316-2.58 3.365-6.559 5.36-10.799 5.36h-6.109c-13.817 0-25.019 11.201-25.019 25.019v61.727h123.302v-58.217c0-1.519.508-2.988 1.415-4.206 8.459-11.363 5.797-27.758-4.067-37.625z" fill="#766d78"/><path d="m127.575 321.748-12.17 8.246c-1.863 1.262-4.306 1.262-6.169 0l-12.17-8.246c-1.51-1.023-2.415-2.729-2.415-4.553v-56.53h35.339v56.53c-.001 1.824-.905 3.53-2.415 4.553z" fill="#ebae9d"/><g fill="#ffcdbe"><path d="m168.926 255.624h-113.212c-6.231 0-11.283-5.052-11.283-11.283v-6.025c0-6.231 5.052-11.283 11.283-11.283h113.212c6.231 0 11.283 5.052 11.283 11.283v6.025c0 6.231-5.051 11.283-11.283 11.283z"/><path d="m150.29 200.868v53.753c0 20.114-16.306 36.42-36.42 36.42h-3.1c-20.12 0-36.42-16.31-36.42-36.42v-38.81c0-11.4 7.24-21.12 17.37-24.81 15.405 5.207 38.699 9.179 54.85 6.667 1.959-.304 3.72 1.217 3.72 3.2z"/></g></g><path d="m248.259 130.241v30.103c0 2.761 2.239 5 5 5h204.729c2.761 0 5-2.239 5-5v-30.103c0-2.761-2.239-5-5-5h-204.729c-2.762 0-5 2.239-5 5z" fill="#80b6fc"/><g><path d="m415.72 324.222c-8.453 0-15.306 6.853-15.306 15.306s6.853 15.307 15.306 15.307c8.454 0 15.307-6.853 15.307-15.307s-6.853-15.306-15.307-15.306z" fill="#9ec8fc"/></g><g><path d="m494.5 83.5h-368.284c-4.143 0-7.5 3.358-7.5 7.5s3.357 7.5 7.5 7.5h368.284c1.379 0 2.5 1.122 2.5 2.5v310c0 1.378-1.121 2.5-2.5 2.5h-61.279c-4.143 0-7.5 3.358-7.5 7.5s3.357 7.5 7.5 7.5h61.279c9.649 0 17.5-7.851 17.5-17.5v-310c0-9.649-7.851-17.5-17.5-17.5z"/><path d="m398.221 413.5h-380.721c-1.379 0-2.5-1.122-2.5-2.5v-310c0-1.378 1.121-2.5 2.5-2.5h73.716c4.143 0 7.5-3.358 7.5-7.5s-3.357-7.5-7.5-7.5h-73.716c-9.649 0-17.5 7.851-17.5 17.5v310c0 9.649 7.851 17.5 17.5 17.5h380.721c4.143 0 7.5-3.358 7.5-7.5s-3.358-7.5-7.5-7.5z"/><path d="m177.38 138.423c-9.41-9.399-23.21-14.564-38.885-14.564-.115 0-.231 0-.348.001-20.374.087-39.82 8.994-50.753 23.251-1.177 1.537-2.942 2.419-4.845 2.419h-6.109c-17.927 0-32.511 14.588-32.511 32.52v41.657c-4.264 3.447-7 8.714-7 14.613v6.02c0 10.355 8.425 18.78 18.78 18.78h11.972c2.351 11.94 9.557 22.151 19.468 28.501v15.289h-23.529c-12.015 0-21.79 9.775-21.79 21.79v51.1c0 5.79 4.71 10.5 10.5 10.5h119.98c5.79 0 10.5-4.71 10.5-10.5v-51.1c0-12.015-9.775-21.79-21.79-21.79h-23.53v-15.29c9.911-6.349 17.116-16.56 19.467-28.5h11.972c10.355 0 18.78-8.425 18.78-18.78v-6.02c0-5.166-2.096-9.85-5.479-13.25v-39.342c10.283-13.92 8.211-34.23-4.85-47.305zm-100.94 26.107h6.109c6.513 0 12.775-3.103 16.751-8.296 8.043-10.488 23.316-17.308 38.915-17.374 11.613-.076 22.033 3.653 28.559 10.171 7.736 7.745 9.208 19.973 3.329 27.868-1.88 2.549-2.873 5.544-2.873 8.661v33.97h-9.44v-18.662c0-3.143-1.368-6.117-3.753-8.16-2.381-2.039-5.526-2.931-8.619-2.451-14.6 2.271-36.856-1.48-51.297-6.361-1.615-.546-3.366-.525-4.969.058-13.34 4.859-22.303 17.661-22.303 31.856v3.718h-7.92v-37.48c.001-9.659 7.856-17.518 17.511-17.518zm37.43 119.012h-3.101c-15.946 0-28.92-12.974-28.92-28.92v-38.81c0-7.11 4.033-13.593 10.246-16.802 14.584 4.55 34.526 7.993 50.694 6.65v48.962c.001 15.946-12.973 28.92-28.919 28.92zm-61.94-39.202v-6.02c0-2.09 1.696-3.79 3.78-3.79h11.14v13.59h-11.14c-2.084 0-3.78-1.696-3.78-3.78zm115.88 84.36v46.6h-110.98v-46.6c0-3.744 3.046-6.79 6.79-6.79h24.421c.943 2.415 2.602 4.536 4.824 6.05l12.146 8.224c2.224 1.518 4.771 2.275 7.316 2.275 2.537 0 5.072-.754 7.278-2.259l12.191-8.255c2.208-1.506 3.862-3.623 4.803-6.036h24.419c3.746.001 6.792 3.047 6.792 6.791zm-45.32-12.568-10.17 6.886-10.17-6.886v-18.445c2.788.557 5.669.854 8.619.854h3.101c2.95 0 5.832-.297 8.62-.854zm50.22-71.792c0 2.084-1.696 3.78-3.78 3.78h-11.14v-13.59h11.14c2.084 0 3.78 1.7 3.78 3.79z"/><path d="m253.259 172.844h204.729c6.893 0 12.5-5.607 12.5-12.5v-30.103c0-6.893-5.607-12.5-12.5-12.5h-204.729c-6.893 0-12.5 5.607-12.5 12.5v30.103c0 6.892 5.607 12.5 12.5 12.5zm2.5-40.103h199.729v25.103h-199.729z"/><path d="m248.259 222.348h113.751c4.143 0 7.5-3.358 7.5-7.5s-3.357-7.5-7.5-7.5h-113.751c-4.143 0-7.5 3.358-7.5 7.5s3.357 7.5 7.5 7.5z"/><path d="m248.259 261.052h113.751c4.143 0 7.5-3.358 7.5-7.5s-3.357-7.5-7.5-7.5h-113.751c-4.143 0-7.5 3.358-7.5 7.5s3.357 7.5 7.5 7.5z"/><path d="m470.488 335.529c0-30.071-24.472-54.767-54.769-54.767-30.248 0-54.767 24.648-54.767 54.767 0 30.2 24.568 54.769 54.767 54.769 30.2 0 54.769-24.569 54.769-54.769zm-54.768-39.767c14.177 0 26.638 7.463 33.681 18.66l-18.212 8.367c-4.068-3.762-9.503-6.066-15.468-6.066s-11.4 2.305-15.468 6.067l-18.212-8.367c7.042-11.199 19.502-18.661 33.679-18.661zm0 51.575c-4.304 0-7.806-3.503-7.806-7.809 0-4.305 3.502-7.807 7.807-7.807s7.807 3.502 7.807 7.807c-.001 4.306-3.504 7.809-7.808 7.809zm-39.12-18.908 16.579 7.617c-.175 1.136-.266 2.298-.266 3.482 0 9.949 6.405 18.426 15.306 21.535v13.515c-20.952-4.016-35.576-24.28-31.619-46.149zm46.62 46.15v-13.515c8.902-3.11 15.308-11.586 15.308-21.536 0-1.184-.091-2.347-.266-3.483l16.579-7.617c3.957 21.854-10.656 42.132-31.621 46.151z"/></g></g></svg>