<svg height="512" viewBox="0 0 512 512" width="512" xmlns="http://www.w3.org/2000/svg"><g id="filled_outline" data-name="filled outline"><path d="m448 456h-320v-432l320 1.143z" fill="#fbb540"/><path d="m424 456h-296v-408h216l80 80z" fill="#ea9d2d"/><path d="m416 486.857h-320v-430.857h240l80 80z" fill="#eaeae8"/><path d="m336 232h-168v-32l24-8 16-32h80l16 32 32 8z" fill="#0bafea"/><path d="m304 192h-112l16-32h80z" fill="#8feaff"/><circle cx="208" cy="232" fill="#eaeae8" r="16"/><circle cx="296" cy="232" fill="#eaeae8" r="16"/><path d="m208 248a16 16 0 1 1 16-16 16.018 16.018 0 0 1 -16 16zm0-24a8 8 0 1 0 8 8 8.009 8.009 0 0 0 -8-8z" fill="#cbcbcb"/><path d="m296 248a16 16 0 1 1 16-16 16.018 16.018 0 0 1 -16 16zm0-24a8 8 0 1 0 8 8 8.009 8.009 0 0 0 -8-8z" fill="#cbcbcb"/><path d="m240 160h16v40h-16z" fill="#0bafea"/><path d="m416 136h-80v-80z" fill="#fbfdff"/><g fill="#cbcbcb"><path d="m272 296h-120a8 8 0 0 1 0-16h120a8 8 0 0 1 0 16z"/><path d="m192 336h-24a8 8 0 0 1 0-16h24a8 8 0 0 1 0 16z"/><path d="m232 336h-8a8 8 0 0 1 0-16h8a8 8 0 0 1 0 16z"/><path d="m336 336h-72a8 8 0 0 1 0-16h72a8 8 0 0 1 0 16z"/></g><circle cx="256" cy="408" fill="#fbb540" r="48"/><path d="m256 424a7.986 7.986 0 0 1 -5.659-2.343l-16-16a8 8 0 0 1 11.314-11.314l11.093 11.094 58.452-43.837a8 8 0 0 1 9.6 12.8l-64 48a7.977 7.977 0 0 1 -4.8 1.6z" fill="#02a437"/><path d="m360 296h-56a8 8 0 0 1 0-16h56a8 8 0 0 1 0 16z" fill="#cbcbcb"/><path d="m368 416h-24a8 8 0 0 1 0-16h24a8 8 0 0 1 0 16z" fill="#cbcbcb"/><path d="m384 448h-40a8 8 0 0 1 0-16h40a8 8 0 0 1 0 16z" fill="#cbcbcb"/><path d="m448.029 17.143-320-1.143h-.029a8 8 0 0 0 -8 8v24h-24a8 8 0 0 0 -8 8v430.857a8 8 0 0 0 8 8h320a8 8 0 0 0 8-8v-22.857h24a8 8 0 0 0 8-8v-430.857a8 8 0 0 0 -7.971-8zm-40.029 461.714h-304v-414.857h224v72a8 8 0 0 0 8 8h72zm-64-403.544 52.687 52.687h-52.687zm96 372.687h-16v-312a8 8 0 0 0 -2.343-5.657l-80-80a8 8 0 0 0 -5.657-2.343h-200v-15.972l304 1.086z"/><path d="m168 240h17.376a24 24 0 0 0 45.248 0h42.752a24 24 0 0 0 45.248 0h17.376a8 8 0 0 0 8-8v-32a8 8 0 0 0 -6.06-7.761l-28.43-7.108-14.355-28.709a8 8 0 0 0 -7.155-4.422h-80a8 8 0 0 0 -7.155 4.422l-14.518 29.036-20.857 6.952a8 8 0 0 0 -5.47 7.59v32a8 8 0 0 0 8 8zm40 0a8 8 0 1 1 8-8 8.009 8.009 0 0 1 -8 8zm88 0a8 8 0 1 1 8-8 8.009 8.009 0 0 1 -8 8zm-4.944-56h-35.056v-16h27.056zm-78.112-16h27.056v16h-35.056zm-36.944 37.766 17.3-5.766h109.717l24.983 6.246v17.754h-9.376a24 24 0 0 0 -45.248 0h-42.752a24 24 0 0 0 -45.248 0h-9.376z"/><path d="m280 288a8 8 0 0 0 -8-8h-120a8 8 0 0 0 0 16h120a8 8 0 0 0 8-8z"/><path d="m192 320h-24a8 8 0 0 0 0 16h24a8 8 0 0 0 0-16z"/><path d="m224 320a8 8 0 0 0 0 16h8a8 8 0 0 0 0-16z"/><path d="m344 328a8 8 0 0 0 -8-8h-72a8 8 0 0 0 0 16h72a8 8 0 0 0 8-8z"/><path d="m315.2 361.6-15.409 11.556a55.851 55.851 0 1 0 8.131 13.9l16.878-12.656a8 8 0 0 0 -9.6-12.8zm-19.2 46.4a40.053 40.053 0 1 1 -9-25.248l-30.25 22.685-11.093-11.094a8 8 0 0 0 -11.314 11.314l16 16a8 8 0 0 0 10.457.743l33.688-25.266a39.9 39.9 0 0 1 1.512 10.866z"/><path d="m296 288a8 8 0 0 0 8 8h56a8 8 0 0 0 0-16h-56a8 8 0 0 0 -8 8z"/><path d="m344 400a8 8 0 0 0 0 16h24a8 8 0 0 0 0-16z"/><path d="m384 432h-40a8 8 0 0 0 0 16h40a8 8 0 0 0 0-16z"/></g></svg>