<?xml version="1.0" encoding="utf-8"?>
<!-- Generator: Adobe Illustrator 23.0.2, SVG Export Plug-In . SVG Version: 6.00 Build 0)  -->
<svg version="1.1" id="Layer_1" xmlns="http://www.w3.org/2000/svg" xmlns:xlink="http://www.w3.org/1999/xlink" x="0px" y="0px"
	 viewBox="0 0 2603.9 1410.8" style="enable-background:new 0 0 2603.9 1410.8;" xml:space="preserve">
<style type="text/css">
	.st0{fill:#EBF2F9;}
	.st1{fill:#DCEAF9;}
	.st2{fill:#D5E7F7;}
	.st3{fill:#C4D9ED;}
	.st4{fill:#ADC9E0;}
	.st5{fill:#1C2948;}
	.st6{fill:#163560;}
	.st7{fill:#F4F4F4;}
	.st8{fill:#B64C41;}
	.st9{fill:#D8D5D2;}
	.st10{fill:#2D3A62;}
	.st11{fill:#98BDF4;}
	.st12{fill:#2B478B;}
	.st13{fill:#233862;}
	.st14{fill:#AB7041;}
	.st15{fill:#9C5F33;}
	.st16{fill:#963333;}
	.st17{fill:#4A82D3;}
	.st18{fill:#739AF0;}
	.st19{fill:#6793E7;}
	.st20{fill:#FFB27D;}
	.st21{fill:#EE9849;}
	.st22{fill:#E58638;}
	.st23{fill:#E8945B;}
	.st24{fill:#CB7D45;}
	.st25{fill:#A05F32;}
	.st26{fill:#AF7041;}
	.st27{fill:#F1A34F;}
	.st28{fill:#FFFFFF;}
	.st29{opacity:0.4;fill:#D86713;enable-background:new    ;}
	.st30{fill:#2E3552;}
</style>
<g>
	<g>
		<g>
			<rect class="st0" width="567.6" height="1410.8"/>
			<path class="st0" d="M231.4,591.5c133.9-53.9,39.8-865.7,635.9-494.9C1104.4,244.2,1475.1-38,1802,59.5
				c300.2,89.6,298.2,344.9,269.2,441c-58.7,194.3,12.4,159.1,181.8,242.6c265.7,130.9,185,660-66,662.2c-251,2.2-2148.8,0-2148.8,0
				S-202.9,766.3,231.4,591.5z"/>
			<g>
				<g>
					<rect x="166.3" y="1162" class="st1" width="116.3" height="239.6"/>
					<polygon class="st2" points="2013.3,1401.5 2013.3,488 1877.4,488 1877.4,383.2 1845.6,383.2 1845.6,203.1 1675.2,203.1 
						1675.2,383.2 1515.8,383.2 1515.8,136.4 1339.9,69.8 1339.9,280.3 1299.8,280.3 1299.8,0 1123.9,58.3 1123.9,479.3 
						901.5,479.3 901.5,727.9 818.4,727.9 818.4,790.6 627.5,790.6 627.5,682.7 517.9,682.7 517.9,389.6 382.5,389.6 382.5,930.7 
						247.1,930.7 247.1,1401.5 					"/>
					<rect x="1152.5" y="81.6" class="st3" width="118.6" height="43.4"/>
					<rect x="1152.5" y="163.3" class="st3" width="118.6" height="43.4"/>
					<rect x="1152.5" y="236.7" class="st3" width="118.6" height="43.4"/>
					<g>
						<rect x="382.6" y="589.1" class="st3" width="136.6" height="67.1"/>
						<rect x="382.6" y="794.9" class="st3" width="136.6" height="67.1"/>
						<rect x="382.6" y="896.2" class="st3" width="136.6" height="67.1"/>
					</g>
					<rect x="382.6" y="1002.2" class="st3" width="136.6" height="67.1"/>
					<rect x="382.6" y="1106" class="st3" width="136.6" height="67.1"/>
					<rect x="382.6" y="1212" class="st3" width="136.6" height="67.1"/>
					<g>
						<rect x="1365.4" y="236.7" class="st3" width="124.8" height="43.4"/>
						<rect x="1365.4" y="163.9" class="st3" width="124.8" height="43.4"/>
						<rect x="1149.5" y="307.9" class="st3" width="340.7" height="43.4"/>
						<rect x="1149.5" y="373.2" class="st3" width="340.7" height="43.4"/>
						<rect x="1149.5" y="438.1" class="st3" width="340.7" height="41.8"/>
					</g>
					<rect x="382.6" y="693.6" class="st3" width="136.6" height="67.1"/>
					<g>
						<rect x="937.8" y="522" class="st3" width="29.8" height="42"/>
						<rect x="993.6" y="522" class="st3" width="29.8" height="42"/>
						<rect x="1048.1" y="522" class="st3" width="29.8" height="42"/>
						<rect x="1099.8" y="522" class="st3" width="29.8" height="42"/>
						<rect x="1152.5" y="522" class="st3" width="29.8" height="42"/>
						<rect x="1205.7" y="522" class="st3" width="29.8" height="42"/>
						<rect x="1261.5" y="522" class="st3" width="29.8" height="42"/>
						<rect x="1316" y="522" class="st3" width="29.8" height="42"/>
						<rect x="1367.7" y="522" class="st3" width="29.8" height="42"/>
						<rect x="1420.3" y="522" class="st3" width="29.8" height="42"/>
						<rect x="1475.2" y="522" class="st3" width="29.8" height="42"/>
						<rect x="1531" y="522" class="st3" width="29.8" height="42"/>
						<rect x="1585.5" y="522" class="st3" width="29.8" height="42"/>
						<rect x="1637.2" y="522" class="st3" width="29.8" height="42"/>
						<rect x="1689.8" y="522" class="st3" width="29.8" height="42"/>
						<rect x="1743.1" y="522" class="st3" width="29.8" height="42"/>
						<rect x="1798.9" y="522" class="st3" width="29.8" height="42"/>
						<rect x="1853.4" y="522" class="st3" width="29.8" height="42"/>
						<rect x="1905.1" y="522" class="st3" width="29.8" height="42"/>
						<rect x="1957.7" y="522" class="st3" width="29.8" height="42"/>
						<rect x="937.8" y="596.2" class="st3" width="29.8" height="42"/>
						<rect x="993.6" y="596.2" class="st3" width="29.8" height="42"/>
						<rect x="1048.1" y="596.2" class="st3" width="29.8" height="42"/>
						<rect x="1099.8" y="596.2" class="st3" width="29.8" height="42"/>
						<rect x="1152.5" y="596.2" class="st3" width="29.8" height="42"/>
						<rect x="1205.7" y="596.2" class="st3" width="29.8" height="42"/>
						<rect x="1261.5" y="596.2" class="st3" width="29.8" height="42"/>
						<rect x="1316" y="596.2" class="st3" width="29.8" height="42"/>
						<rect x="1367.7" y="596.2" class="st3" width="29.8" height="42"/>
						<rect x="1420.3" y="596.2" class="st3" width="29.8" height="42"/>
						<rect x="1475.2" y="596.2" class="st3" width="29.8" height="42"/>
						<rect x="1531" y="596.2" class="st3" width="29.8" height="42"/>
						<rect x="1585.5" y="596.2" class="st3" width="29.8" height="42"/>
						<rect x="1637.2" y="596.2" class="st3" width="29.8" height="42"/>
						<rect x="1689.8" y="596.2" class="st3" width="29.8" height="42"/>
						<rect x="1743.1" y="596.2" class="st3" width="29.8" height="42"/>
						<rect x="1798.9" y="596.2" class="st3" width="29.8" height="42"/>
						<rect x="1853.4" y="596.2" class="st3" width="29.8" height="42"/>
						<rect x="1905.1" y="596.2" class="st3" width="29.8" height="42"/>
						<rect x="1957.7" y="596.2" class="st3" width="29.8" height="42"/>
						<rect x="937.8" y="669.2" class="st3" width="29.8" height="42"/>
						<rect x="993.6" y="669.2" class="st3" width="29.8" height="42"/>
						<rect x="1048.1" y="669.2" class="st3" width="29.8" height="42"/>
						<rect x="1099.8" y="669.2" class="st3" width="29.8" height="42"/>
						<rect x="1152.5" y="669.2" class="st3" width="29.8" height="42"/>
						<rect x="1205.7" y="669.2" class="st3" width="29.8" height="42"/>
						<rect x="1261.5" y="669.2" class="st3" width="29.8" height="42"/>
						<rect x="1316" y="669.2" class="st3" width="29.8" height="42"/>
						<rect x="1367.7" y="669.2" class="st3" width="29.8" height="42"/>
						<rect x="1420.3" y="669.2" class="st3" width="29.8" height="42"/>
						<rect x="1475.2" y="669.2" class="st3" width="29.8" height="42"/>
						<rect x="1531" y="669.2" class="st3" width="29.8" height="42"/>
						<rect x="1585.5" y="669.2" class="st3" width="29.8" height="42"/>
						<rect x="1637.2" y="669.2" class="st3" width="29.8" height="42"/>
						<rect x="1689.8" y="669.2" class="st3" width="29.8" height="42"/>
						<rect x="1743.1" y="669.2" class="st3" width="29.8" height="42"/>
						<rect x="1798.9" y="669.2" class="st3" width="29.8" height="42"/>
						<rect x="1853.4" y="669.2" class="st3" width="29.8" height="42"/>
						<rect x="1905.1" y="669.2" class="st3" width="29.8" height="42"/>
						<rect x="1957.7" y="669.2" class="st3" width="29.8" height="42"/>
						<rect x="937.8" y="746.8" class="st3" width="29.8" height="42"/>
						<rect x="993.6" y="746.8" class="st3" width="29.8" height="42"/>
						<rect x="1048.1" y="746.8" class="st3" width="29.8" height="42"/>
						<rect x="1099.8" y="746.8" class="st3" width="29.8" height="42"/>
						<rect x="1152.5" y="746.8" class="st3" width="29.8" height="42"/>
						<rect x="1205.7" y="746.8" class="st3" width="29.8" height="42"/>
						<rect x="1261.5" y="746.8" class="st3" width="29.8" height="42"/>
						<rect x="1316" y="746.8" class="st3" width="29.8" height="42"/>
						<rect x="1367.7" y="746.8" class="st3" width="29.8" height="42"/>
						<rect x="1420.3" y="746.8" class="st3" width="29.8" height="42"/>
						<rect x="1475.2" y="746.8" class="st3" width="29.8" height="42"/>
						<rect x="1531" y="746.8" class="st3" width="29.8" height="42"/>
						<rect x="1585.5" y="746.8" class="st3" width="29.8" height="42"/>
						<rect x="1637.2" y="746.8" class="st3" width="29.8" height="42"/>
						<rect x="1689.8" y="746.8" class="st3" width="29.8" height="42"/>
						<rect x="1743.1" y="746.8" class="st3" width="29.8" height="42"/>
						<rect x="1798.9" y="746.8" class="st3" width="29.8" height="42"/>
						<rect x="1853.4" y="746.8" class="st3" width="29.8" height="42"/>
						<rect x="1905.1" y="746.8" class="st3" width="29.8" height="42"/>
						<rect x="1957.7" y="746.8" class="st3" width="29.8" height="42"/>
						<rect x="937.8" y="821" class="st3" width="29.8" height="42"/>
						<rect x="993.6" y="821" class="st3" width="29.8" height="42"/>
						<rect x="1048.1" y="821" class="st3" width="29.8" height="42"/>
						<rect x="1099.8" y="821" class="st3" width="29.8" height="42"/>
						<rect x="1152.5" y="821" class="st3" width="29.8" height="42"/>
						<rect x="1205.7" y="821" class="st3" width="29.8" height="42"/>
						<rect x="1261.5" y="821" class="st3" width="29.8" height="42"/>
						<rect x="1316" y="821" class="st3" width="29.8" height="42"/>
						<rect x="1367.7" y="821" class="st3" width="29.8" height="42"/>
						<rect x="1420.3" y="821" class="st3" width="29.8" height="42"/>
						<rect x="1475.2" y="821" class="st3" width="29.8" height="42"/>
						<rect x="1531" y="821" class="st3" width="29.8" height="42"/>
						<rect x="1585.5" y="821" class="st3" width="29.8" height="42"/>
						<rect x="1637.2" y="821" class="st3" width="29.8" height="42"/>
						<rect x="1689.8" y="821" class="st3" width="29.8" height="42"/>
						<rect x="1743.1" y="821" class="st3" width="29.8" height="42"/>
						<rect x="1798.9" y="821" class="st3" width="29.8" height="42"/>
						<rect x="1905.1" y="821" class="st3" width="29.8" height="42"/>
						<rect x="1853.4" y="821" class="st3" width="29.8" height="42"/>
						<rect x="1957.7" y="821" class="st3" width="29.8" height="42"/>
						<rect x="937.8" y="894" class="st3" width="29.8" height="42"/>
						<rect x="993.6" y="894" class="st3" width="29.8" height="42"/>
						<rect x="1048.1" y="894" class="st3" width="29.8" height="42"/>
						<rect x="1099.8" y="894" class="st3" width="29.8" height="42"/>
						<rect x="1152.5" y="894" class="st3" width="29.8" height="42"/>
						<rect x="1205.7" y="894" class="st3" width="29.8" height="42"/>
						<rect x="1261.5" y="894" class="st3" width="29.8" height="42"/>
						<rect x="1316" y="894" class="st3" width="29.8" height="42"/>
						<rect x="1367.7" y="894" class="st3" width="29.8" height="42"/>
						<rect x="1420.3" y="894" class="st3" width="29.8" height="42"/>
						<rect x="1475.2" y="894" class="st3" width="29.8" height="42"/>
						<rect x="1531" y="894" class="st3" width="29.8" height="42"/>
						<rect x="1585.5" y="894" class="st3" width="29.8" height="42"/>
						<rect x="1637.2" y="894" class="st3" width="29.8" height="42"/>
						<rect x="1689.8" y="894" class="st3" width="29.8" height="42"/>
						<rect x="1743.1" y="894" class="st3" width="29.8" height="42"/>
						<rect x="1798.9" y="894" class="st3" width="29.8" height="42"/>
						<rect x="1905.1" y="894" class="st3" width="29.8" height="42"/>
						<rect x="1957.7" y="894" class="st3" width="29.8" height="42"/>
					</g>
					<rect x="2237.5" y="810.9" class="st3" width="66.3" height="448.7"/>
					<rect x="2166.3" y="1083.7" class="st4" width="71.2" height="311.7"/>
					<polygon class="st3" points="676,682.7 676,595.3 679.6,595.3 679.6,682.7 728.8,682.7 728.8,790.6 627.5,790.6 627.5,682.7 
											"/>
					<polygon class="st3" points="382.6,456.7 382.6,389.6 409.7,389.6 409.7,360.4 413.3,360.4 413.3,389.6 517.2,389.6 
						519.1,389.6 538.8,389.6 538.8,360.4 542.4,360.4 542.4,389.6 567.6,389.6 567.6,682.7 517.2,682.7 517.2,556.4 382.6,556.4 
						382.6,489.3 517.2,489.3 517.2,456.7 					"/>
					<polygon class="st2" points="1857.1,876.2 1857.1,1254.5 2237.5,1254.5 2237.5,810.9 					"/>
					<rect x="1857.1" y="1082.9" class="st2" width="474.5" height="319.1"/>
					<rect x="1857.1" y="893.7" class="st3" width="474.5" height="103.7"/>
					<g>
						<rect x="1889.4" y="1169.1" class="st3" width="24.4" height="34.3"/>
						<rect x="1935" y="1169.1" class="st3" width="24.4" height="34.3"/>
						<rect x="1979.6" y="1169.1" class="st3" width="24.4" height="34.3"/>
						<rect x="2021.8" y="1169.1" class="st3" width="24.4" height="34.3"/>
						<rect x="2064.9" y="1169.1" class="st3" width="24.4" height="34.3"/>
						<rect x="2108.4" y="1169.1" class="st3" width="24.4" height="34.3"/>
						<rect x="2154" y="1169.1" class="st3" width="24.4" height="34.3"/>
						<rect x="2198.5" y="1169.1" class="st3" width="24.4" height="34.3"/>
						<rect x="2240.8" y="1169.1" class="st3" width="24.4" height="34.3"/>
						<rect x="2283.8" y="1169.1" class="st3" width="24.4" height="34.3"/>
						<rect x="1889.4" y="1229.7" class="st3" width="24.4" height="34.3"/>
						<rect x="1935" y="1229.7" class="st3" width="24.4" height="34.3"/>
						<rect x="1979.6" y="1229.7" class="st3" width="24.4" height="34.3"/>
						<rect x="2021.8" y="1229.7" class="st3" width="24.4" height="34.3"/>
						<rect x="2064.9" y="1229.7" class="st3" width="24.4" height="34.3"/>
						<rect x="2108.4" y="1229.7" class="st3" width="24.4" height="34.3"/>
						<rect x="2154" y="1229.7" class="st3" width="24.4" height="34.3"/>
						<rect x="2198.5" y="1229.7" class="st3" width="24.4" height="34.3"/>
						<rect x="2240.8" y="1229.7" class="st3" width="24.4" height="34.3"/>
						<rect x="2283.8" y="1229.7" class="st3" width="24.4" height="34.3"/>
						<rect x="1889.4" y="1047" class="st3" width="24.4" height="34.3"/>
						<rect x="1935" y="1047" class="st3" width="24.4" height="34.3"/>
						<rect x="1979.6" y="1047" class="st3" width="24.4" height="34.3"/>
						<rect x="2021.8" y="1047" class="st3" width="24.4" height="34.3"/>
						<rect x="2064.9" y="1047" class="st3" width="24.4" height="34.3"/>
						<rect x="2108.4" y="1047" class="st3" width="24.4" height="34.3"/>
						<rect x="2154" y="1047" class="st3" width="24.4" height="34.3"/>
						<rect x="2198.5" y="1047" class="st3" width="24.4" height="34.3"/>
						<rect x="1889.4" y="1107.6" class="st3" width="24.4" height="34.3"/>
						<rect x="1935" y="1107.6" class="st3" width="24.4" height="34.3"/>
						<rect x="1979.6" y="1107.6" class="st3" width="24.4" height="34.3"/>
						<rect x="2021.8" y="1107.6" class="st3" width="24.4" height="34.3"/>
						<rect x="2064.9" y="1107.6" class="st3" width="24.4" height="34.3"/>
						<rect x="2108.4" y="1107.6" class="st3" width="24.4" height="34.3"/>
						<rect x="2154" y="1107.6" class="st3" width="24.4" height="34.3"/>
						<rect x="2198.5" y="1107.6" class="st3" width="24.4" height="34.3"/>
						<rect x="2240.8" y="1107.6" class="st3" width="24.4" height="34.3"/>
						<rect x="2283.8" y="1107.6" class="st3" width="24.4" height="34.3"/>
						<rect x="1889.4" y="1289.4" class="st3" width="24.4" height="34.3"/>
						<rect x="1935" y="1289.4" class="st3" width="24.4" height="34.3"/>
						<rect x="1979.6" y="1289.4" class="st3" width="24.4" height="34.3"/>
						<rect x="2021.8" y="1289.4" class="st3" width="24.4" height="34.3"/>
						<rect x="2064.9" y="1289.4" class="st3" width="24.4" height="34.3"/>
						<rect x="2108.4" y="1289.4" class="st3" width="24.4" height="34.3"/>
						<rect x="2154" y="1289.4" class="st3" width="24.4" height="34.3"/>
						<rect x="2198.5" y="1289.4" class="st3" width="24.4" height="34.3"/>
						<rect x="2240.8" y="1289.4" class="st3" width="24.4" height="34.3"/>
						<rect x="2283.8" y="1289.4" class="st3" width="24.4" height="34.3"/>
					</g>
					<rect x="2204.9" y="739.7" class="st2" width="7" height="89.9"/>
					<g>
						<rect x="1893.3" y="922.9" class="st2" width="20.5" height="35.4"/>
						<rect x="2096.6" y="922.9" class="st2" width="20.5" height="35.4"/>
						<rect x="2258.4" y="922.9" class="st2" width="20.5" height="35.4"/>
					</g>
				</g>
				<rect x="593.6" y="1003.4" class="st3" width="682.8" height="399.4"/>
				<rect x="1020.2" y="1043.2" class="st2" width="36.4" height="55.6"/>
				<rect x="954" y="1043.2" class="st2" width="36.4" height="55.6"/>
				<rect x="889.8" y="1043.2" class="st2" width="36.4" height="55.6"/>
				<rect x="825.3" y="1043.2" class="st2" width="36.4" height="55.6"/>
				<rect x="761.1" y="1043.2" class="st2" width="36.4" height="55.6"/>
				<rect x="693.7" y="1043.2" class="st2" width="36.4" height="55.6"/>
				<rect x="629.5" y="1043.2" class="st2" width="36.4" height="55.6"/>
				<rect x="1213.2" y="1125.4" class="st2" width="36.4" height="55.6"/>
				<rect x="1149" y="1125.4" class="st2" width="36.4" height="55.6"/>
				<rect x="1084.4" y="1125.4" class="st2" width="36.4" height="55.6"/>
				<rect x="1020.2" y="1125.4" class="st2" width="36.4" height="55.6"/>
				<rect x="954" y="1125.4" class="st2" width="36.4" height="55.6"/>
				<rect x="889.8" y="1125.4" class="st2" width="36.4" height="55.6"/>
				<rect x="825.3" y="1125.4" class="st2" width="36.4" height="55.6"/>
				<rect x="761.1" y="1125.4" class="st2" width="36.4" height="55.6"/>
				<rect x="693.7" y="1125.4" class="st2" width="36.4" height="55.6"/>
				<rect x="629.5" y="1125.4" class="st2" width="36.4" height="55.6"/>
				<rect x="1213.2" y="1213.7" class="st2" width="36.4" height="55.6"/>
				<rect x="1149" y="1213.7" class="st2" width="36.4" height="55.6"/>
				<rect x="1084.4" y="1213.7" class="st2" width="36.4" height="55.6"/>
				<rect x="1020.2" y="1213.7" class="st2" width="36.4" height="55.6"/>
				<rect x="954" y="1213.7" class="st2" width="36.4" height="55.6"/>
				<rect x="889.8" y="1213.7" class="st2" width="36.4" height="55.6"/>
				<rect x="825.3" y="1213.7" class="st2" width="36.4" height="55.6"/>
				<rect x="761.1" y="1213.7" class="st2" width="36.4" height="55.6"/>
				<rect x="693.7" y="1213.7" class="st2" width="36.4" height="55.6"/>
				<rect x="629.5" y="1213.7" class="st2" width="36.4" height="55.6"/>
				<rect x="1213.2" y="1295.9" class="st2" width="36.4" height="55.6"/>
				<rect x="1149" y="1295.9" class="st2" width="36.4" height="55.6"/>
				<polygon class="st3" points="828.8,1020.5 686.3,1020.5 686.3,896.2 828.8,950.8 				"/>
				<polygon class="st3" points="1531.1,1402.8 1857.1,1402.8 1857.1,1048.1 1531.1,1161 				"/>
				<rect x="1539.6" y="1171.5" class="st2" width="308.9" height="11"/>
				<rect x="1539.6" y="1206.8" class="st2" width="308.9" height="11"/>
				<rect x="1539.6" y="1242" class="st2" width="308.9" height="11"/>
				<rect x="1539.6" y="1277.2" class="st2" width="308.9" height="11"/>
				<rect x="1539.6" y="1312.5" class="st2" width="308.9" height="11"/>
				<rect x="1539.6" y="1347.7" class="st2" width="308.9" height="11"/>
				<rect x="658.9" y="896.3" class="st3" width="27.4" height="106"/>
				<rect x="716.4" y="949.4" class="st2" width="55.6" height="36.4"/>
				<g>
					<rect x="1809.1" y="219.9" class="st3" width="18.9" height="160.3"/>
					<rect x="1771.5" y="219.9" class="st3" width="18.9" height="160.3"/>
					<rect x="1734.5" y="219.9" class="st3" width="18.9" height="160.3"/>
					<rect x="1696" y="219.9" class="st3" width="18.9" height="160.3"/>
				</g>
			</g>
		</g>
		<g>
			<polygon class="st5" points="331.9,1336.1 1544.6,1336.1 1495.3,1154.2 331.9,1154.2 			"/>
			<g>
				<g>
					<path class="st6" d="M884.3,976.2L884.3,976.2L884.3,976.2L884.3,976.2z"/>
					<g>
						<path class="st6" d="M1232.6,1113.3L1232.6,1113.3c-18.2-0.7-37.1-1-56.7-1c0,0-108.6-94.3-234.3-126.3
							C1070.8,1017.8,1232.6,1113.3,1232.6,1113.3z"/>
					</g>
				</g>
				<path class="st7" d="M248.8,1184.1V1080c0,0,122.1-14,195.9-40.7c170.9-62.8,262.8-64,418-64c117.9,0,237.2,78.9,287.9,116.9
					c17.1,12.8,37.8,19.9,59.1,20.4c186.4,4.1,301.7,41.3,358.9,66.4c26.8,11.8,44.1,38.4,44.1,67.6v35l0,0c3.9,0,7,3.1,7,7v58.1
					c0,3.9-3.1,7-7,7l0,0H1533h-31.6c11-19.7,17.1-42.6,16.5-67c-1.7-69.4-58.4-125.9-127.8-127.4c-73.6-1.6-133.8,57.5-133.8,130.8
					c0,23.1,6,44.8,16.5,63.6H588.4c11-19.7,17.1-42.6,16.5-67c-1.7-69.4-58.4-125.9-127.8-127.4c-73.6-1.6-133.8,57.5-133.8,130.8
					c0,23.1,6,44.8,16.5,63.6h-27.3c-94.6,0-108-96.7-108.9-144.2C223.4,1195.6,234.7,1184.1,248.8,1184.1z"/>
				<path class="st6" d="M922.7,994.1c108,27.3,223.8,120.7,223.8,120.7l-306.5-6.6c-12-0.3-22.8-7.3-27.9-18.2l-47-101.4h113.7
					C893.6,988.7,908.3,990.5,922.7,994.1z"/>
				<path class="st6" d="M747.1,991l43,98.6c3.3,7.6-2.2,16.1-10.5,16.1c-43.4,0-157.4-1.6-223.1-18c-15.8-4-21.1-23.8-9.3-35
					C573.8,1027,631.8,991,747.1,991z"/>
				<path class="st8" d="M1604.8,1213.3H1560c0,0-73.2-68.4-190.8-87.7C1369.2,1125.5,1586.4,1149.5,1604.8,1213.3z"/>
				<path class="st8" d="M248.8,1184.1h11.9c6.6,0,12.7-3.8,15.5-9.8c6.9-14.5,21.9-42,45-61.6c8.9-7.6,3.6-22.2-8.1-22.2h-64.3
					V1184.1z"/>
				<path class="st6" d="M836.7,1137.3h59.6c3.3,0,6-2.7,6-6l0,0c0-3.3-2.7-6-6-6h-59.6c-3.3,0-6,2.7-6,6l0,0
					C830.8,1134.6,833.4,1137.3,836.7,1137.3z"/>
				<path class="st6" d="M573.4,1137.3H633c3.3,0,6-2.7,6-6l0,0c0-3.3-2.7-6-6-6h-59.6c-3.3,0-6,2.7-6,6l0,0
					C567.4,1134.6,570.1,1137.3,573.4,1137.3z"/>
				<path class="st9" d="M623.8,1175.9h537.1c22.2,0,35.9,24.3,24.3,43.3l-34.6,56.9c-7.5,12.4-24,15.8-35.8,7.4
					C1069,1250.7,936.7,1182.7,623.8,1175.9z"/>
			</g>
			<path class="st9" d="M819.8,925.4h27.6c3.6,0,6.8,2.3,8,5.6l16.2,45.1h-60.4v-42.3C811.3,929.2,815.1,925.4,819.8,925.4z"/>
			<path class="st6" d="M811.3,975.5v-30.9h11.8c8.2,0,15.4,5.1,18.2,12.8l6.5,18.1L811.3,975.5L811.3,975.5z"/>
			<g>
				<rect x="936.1" y="1191.2" class="st6" width="40.8" height="40.8"/>
				<rect x="895.4" y="1232" class="st6" width="40.8" height="40.8"/>
				<rect x="854.6" y="1191.2" class="st6" width="40.8" height="40.8"/>
				<rect x="813.8" y="1232" class="st6" width="40.8" height="40.8"/>
				<rect x="773.1" y="1191.2" class="st6" width="40.8" height="40.8"/>
			</g>
			<g>
				
					<ellipse transform="matrix(0.7071 -0.7071 0.7071 0.7071 -774.1516 712.59)" class="st10" cx="473.1" cy="1290.8" rx="113.8" ry="113.8"/>
				<path class="st11" d="M473.1,1220.4c38.9,0,70.5,31.6,70.5,70.5s-31.6,70.5-70.5,70.5s-70.5-31.6-70.5-70.5
					S434.1,1220.4,473.1,1220.4z M463.4,1228.1c-15.4,2.3-28.9,10.2-38.5,21.5l24.4,15.1c4-3.6,8.8-6.3,14.1-7.8V1228.1z
					 M482.7,1228.1v28.7c5.3,1.5,10.1,4.2,14.1,7.8l24.4-15.1C511.6,1238.3,498.1,1230.4,482.7,1228.1z M531.6,1315.5
					c3.2-7.6,5-15.9,5-24.6c0-8.8-1.8-17.3-5.1-24.9l-24.4,15.1c0.9,3.1,1.4,6.4,1.4,9.8c0,3.3-0.5,6.5-1.3,9.5L531.6,1315.5z
					 M482.7,1353.6c15.5-2.4,29.1-10.3,38.8-21.7l-24.4-15.1c-4,3.7-8.9,6.5-14.4,8.1V1353.6z M489.1,1290.8c0-8.8-7.2-16-16-16
					s-16,7.2-16,16s7.2,16,16,16C481.9,1306.9,489.1,1299.7,489.1,1290.8z M463.4,1353.6v-28.7c-5.4-1.5-10.3-4.3-14.4-8.1
					l-24.4,15.1C434.3,1343.3,447.9,1351.3,463.4,1353.6z M439,1300.4c-0.8-3-1.3-6.2-1.3-9.5c0-3.4,0.5-6.7,1.4-9.8l-24.4-15.1
					c-3.3,7.7-5.1,16.1-5.1,24.9c0,8.7,1.8,17,5,24.6L439,1300.4z"/>
			</g>
			<g>
				<ellipse class="st10" cx="1387.1" cy="1291" rx="113.8" ry="113.8"/>
				<path class="st11" d="M1387.1,1220.5c38.9,0,70.5,31.6,70.5,70.5s-31.6,70.5-70.5,70.5s-70.5-31.6-70.5-70.5
					S1348.2,1220.5,1387.1,1220.5z M1377.5,1228.2c-15.4,2.3-28.9,10.2-38.5,21.5l24.4,15.1c4-3.6,8.8-6.3,14.1-7.8V1228.2z
					 M1396.8,1228.2v28.7c5.3,1.5,10.1,4.2,14.1,7.8l24.4-15.1C1425.7,1238.4,1412.1,1230.6,1396.8,1228.2z M1445.7,1315.6
					c3.2-7.6,5-15.9,5-24.6c0-8.8-1.8-17.3-5.1-24.9l-24.4,15.1c0.9,3.1,1.4,6.4,1.4,9.8c0,3.3-0.5,6.5-1.3,9.5L1445.7,1315.6z
					 M1396.8,1353.8c15.5-2.4,29.1-10.3,38.8-21.7l-24.4-15.1c-4,3.7-8.9,6.5-14.4,8.1V1353.8z M1403.1,1291c0-8.8-7.2-16-16-16
					s-16,7.2-16,16s7.2,16,16,16S1403.1,1299.9,1403.1,1291z M1377.5,1353.8v-28.7c-5.4-1.5-10.3-4.3-14.4-8.1l-24.4,15.1
					C1348.4,1343.5,1362,1351.4,1377.5,1353.8z M1353,1300.5c-0.8-3-1.3-6.2-1.3-9.5c0-3.4,0.5-6.7,1.4-9.8l-24.4-15.1
					c-3.3,7.7-5.1,16.1-5.1,24.9c0,8.7,1.8,17,5,24.6L1353,1300.5z"/>
			</g>
		</g>
		<g>
			<g>
				<path class="st12" d="M1973.1,1017.6c-5,0-9.5-1-13.4-2.9c-48-23.8-3.4-187.7-3.4-187.7s2.3-7.4,11-11.3
					c4.5-2,10.8-3.1,19.6-1.7c25.3,4.2,30.2,14.7,31.2,20.6C2019.1,840.5,2042,1017.3,1973.1,1017.6z"/>
				<path class="st13" d="M1959.8,1014.7c-48-23.8-3.4-187.7-3.4-187.7s2.3-7.4,11-11.3c18.6,4.9,22.4,13.7,23.4,18.9
					C1991.7,840.1,2011.3,991.8,1959.8,1014.7z"/>
				<g>
					<path class="st13" d="M2058.6,1352.9c0,0,10.9,10.1,8.8,17.4c-2.1,7.2-12,12-13.3,20.8s6.5,15,1.7,15s-36.1-1.4-36.1-1.4
						s-3.5-6.2,5-8.1s11.8-12.2,11.2-21.8c-0.5-9.6,0.8-22.4,0.8-22.4l18.2-4.3L2058.6,1352.9z"/>
					<path class="st13" d="M1924.3,1380c0,0,2.7,21.4-2.1,23.8c-4.8,2.4-62.2,1.6-62.2,1.6s0-7.2,9.9-8.8
						c9.9-1.6,27.2-7.5,30.2-20.6C1903,1362.9,1924.3,1380,1924.3,1380z"/>
					<path class="st12" d="M1872.4,1053.9c0,0,3.2,40.5,7.1,89.1c5.2,66.1,11.4,147.2,12,162.6c1.1,26.7,5.3,69.4,5.3,69.4
						s10.1,10.1,30.4,5.9c0,0,18.1-61,23.2-125.5c0.1-1.1,0.2-2.1,0.2-3.2c4.8-65.7,12.3-204,12.3-204L1872.4,1053.9z"/>
					<path class="st13" d="M1872.4,1053.9c0,0,3.2,40.5,7.1,89.1l71.1,112.4c0.1-1.1,0.2-2.1,0.2-3.2c4.8-65.7,12.3-204,12.3-204
						L1872.4,1053.9z"/>
					<path class="st12" d="M1887.2,1058.7c0,0,58.5,146.6,96.9,215.4s50.5,88.1,50.5,88.1s22-8.8,24-14.8c0,0-14.7-133-40.4-165.4
						c-14.5-18.3-31.6-73.3-32.4-92.5s-5.2-57.3-5.2-57.3L1887.2,1058.7z"/>
				</g>
				<path class="st14" d="M1784,892.5l-12.3,0.4c-2.4,0.1-4.7-0.6-6.9-1.7c-4.4-2.3-13.2-4.8-20.3,6.1c0,0-3.7,6.7,1.1,8.7
					c4.8,1.9,3.2,0.4,10,3.3c5.1,2.2,10.3,2.1,13.9-0.1c3.1-1.9,6.9-1.9,10.4-1l11.2,2.8L1784,892.5z"/>
				<path class="st15" d="M1917.2,832.4c-2.6-15.3-2.7-24.4-2.7-24.4l29.7-23.9c-1.1,32.9,20,48.7,20,48.7s-39.5,19.5-62.4,12.3
					C1901.8,845,1907.4,837.8,1917.2,832.4z"/>
				<path class="st14" d="M1907.6,807.5c0,0,37.7,6.3,41.3-17.3c3.5-23.6,10.8-38.6-13.1-43.6s-30,3.3-33.1,10.9
					C1899.5,765,1897.8,805.2,1907.6,807.5z"/>
				<path class="st16" d="M1770.6,900.3c0.5-7.2,3-14.5,3-14.5s68.3-3.8,74.7-4.9c6.4-1.1,89.7-41,89.7-41l40.1,45.4
					c0,0-107.2,29.6-123.6,32.1c-27,4.1-82.4-6.6-82.4-6.6S1770.2,905.9,1770.6,900.3z"/>
				<path class="st8" d="M1985,1039.8c0.1,1.3-1.4,2.9-3.2,4c-1.4,1-3.1,1.8-4.1,2.3c-5,2.3-10,4.3-14.9,6
					c-11.7,4.4-23.2,7.3-35.7,8.5c-13.4,1.3-28.2,0-39.6-1.1c-6.4-0.8-11.6-1.3-14.8-1.3h-0.4c-0.9,0-1.8-0.3-2.4-0.9
					c-0.5-0.3-0.9-20.3-0.7-47.2c0-3.8,0.1-7.6,0.1-11.7c0-1.3,0-2.7,0.2-3.9V994c0.1-12.6,0.5-25.9,1.1-39.1v-0.3
					c1.3-29.3,3.5-57.5,7.5-73.2c4.5-18.4,15.1-30.5,24.7-39.5l7.9-7c0.7,0.2,1.3,0.3,2,0.3c7.2,1.2,14.9,0.5,22.6-3.3
					c9-4.5,18.9-9.3,20.5-8.1c0.2,0.2,0.4,0.3,0.6,0.5c2.8,2.2,5.3,5,7.6,8.2c0.2,0.1,0.2,0.1,0.2,0.2c0.1,0,0.1,0,0.1,0
					c1.8,2.7,3.6,5.7,5.2,9.1c2.6,5.3,4.8,11.4,6.7,18.2c5.1,18.4,7.6,41.6,7.6,66.3c0,6.3-0.2,12.7-0.6,19.1
					c-0.1,1.8-0.2,3.6-0.3,5.4c-0.8,16-0.7,30.9-0.3,43.9v0.4c0.4,13.2,1.2,24.4,1.8,32.7C1984.6,1033,1984.9,1037,1985,1039.8z"/>
				<path class="st16" d="M1984.3,1027.9c-1.2-17.5-3.3-47.6-1.3-82.4c0.4-6.5,0.6-12.9,0.6-19.2c-7.8-19-14.2-32.7-14.2-32.7h-19.7
					C1949.7,893.7,1935.3,992.3,1984.3,1027.9z"/>
				<path class="st12" d="M1948.9,787.9c0,0-3.9-0.6-3.2-6c0.6-5.3,0.6-12.3-3.7-11c-4.3,1.3-4.6,4.8-6.3,2.7
					c-1.8-2-1.8-10.6-14.7-11.2c-12.9-0.6-18.1,3.9-24.1,1.3c-6-2.6-6.3-11.7-6.3-11.7s1.7,3.2,4.3,4.3c0,0-10-13.7,1.6-23.1
					c11.6-9.4,23.4-3.2,30.1-2.8c14.8,0.9,24.3,1.8,29.2,11.5C1960.3,751.6,1958.3,778.6,1948.9,787.9z"/>
				<g>
					<path class="st17" d="M2043.9,1385.3c-3,7.1,0.3,15.3,7.4,18.3c7.2,3,15.4-0.3,18.5-7.4c3-7.1-0.3-15.3-7.4-18.3
						C2055.2,1374.9,2047,1378.2,2043.9,1385.3z"/>
					<path class="st17" d="M2174.1,1382.3l-20,7.2c-2,0.7-4.2,1.1-6.3,1.1l-113.7-0.9l-12.5-20.3L2174.1,1382.3z"/>
					<g>
						<path class="st17" d="M2109.1,1157.7l-31.9-78v-0.1c-0.2-0.7-5.2-17.5-33.8-21.1h-0.1l-23.5-4.3c-3-0.8-11.8-2.1-15.9,1.3
							c-1.8,1.5-2.5,3.8-2.2,7.1c0.6,6.5,21.8,57.1,36,89.5l-4.5,1.9c-3.6-8.3-35.5-81.6-36.3-91c-0.5-4.9,0.9-8.7,3.9-11.3
							c6.6-5.5,18.9-2.6,20.2-2.3l23.2,4.3c30.8,4,37.2,22.4,37.8,24.5l31.8,77.7L2109.1,1157.7z"/>
					</g>
					<path class="st17" d="M2048.2,1134.7l-61.3,12.2c0,0-17.9,7.2-14.3,38.2c3.2,27.3,17.2,180.3,17.2,180.3s2.9,31.8,71.7,22.5
						L2048.2,1134.7z"/>
					<path class="st18" d="M2014.2,1176.9l16.8,171.4c0.7,6.9,3.2,13.3,7,18.6c7.1,9.9,18.7,16.3,31.8,16.3l56.9,0.2h1.4l35.6,0.1
						c3.6,0,7-0.4,10.3-1.3c0.8-0.2,1.5-0.4,2.3-0.7c12.3-4.1,21.8-14,25.3-26.2c1.5-5.2,1.9-10.8,1-16.6l-26.2-164
						c-2.8-17.5-17.2-30.9-35-32.5l-10.1-0.9l-2.4-0.2l0,0l-2-0.2l-33.6-3.1l-4.1-0.4l-32.4-3c-5.1-0.5-10,0-14.6,1.4
						c-0.3,0.1-0.6,0.2-0.9,0.3l-1.9,0.6C2023.5,1142.7,2012.4,1158.7,2014.2,1176.9z"/>
					<path class="st19" d="M2038.1,1366.9c7.1,9.9,18.7,16.3,31.8,16.3l56.9,0.2h1.4l35.6,0.1c3.6,0,7-0.4,10.3-1.3
						c0.8-0.2,1.5-0.4,2.3-0.7c12.3-4.1,26.5-18.9,26.7-34.5c0,0-120.4-1.3-145.5,2.6C2044.6,1351.7,2040.7,1360.7,2038.1,1366.9z"
						/>
					<g>
						<g>
							<path class="st17" d="M2127,1141c0.3,0.2,26.7,16,30.2,30c3.6,14.4,27.7,181.7,28,183.4c0,0.1,0.7,16.3-12.8,28.4l1.8-0.4
								c0.8-0.2,1.5-0.4,2.3-0.7c12.7-12.5,11-26.9,10.9-27.6c-1-6.9-24.4-169.1-28-183.6c-3.2-12.7-21.8-25.3-27.8-29.1l-2.4-0.2
								l0,0L2127,1141z"/>
						</g>
						<g>
							<path class="st17" d="M2089.3,1137.6c3.8,2.5,18.3,13.4,21.4,33.5c3.7,23.6,18.2,194.8,18.3,196.6v0.1v0.1
								c0,0.1,2.1,9.3-3.8,15.6h1.4h1.4c5.6-6.7,3.3-15,3-16.2c-0.5-5.3-14.7-173.2-18.3-196.6c-2.7-17.3-13.5-28.1-19.4-32.8
								L2089.3,1137.6z"/>
						</g>
						<g>
							<path class="st17" d="M2039.5,1136.8c0.1,0.1,5.6,3.1,10.3,8.4c4.7,5.3,9.9,13.5,11.7,25c3.7,23.6,15.2,194.3,15.3,196v0.1
								v0.1c0,0.1,0.5,10.5-5.3,16.8h3.6c4.4-5.7,4.2-16.1,3.8-17.4c-0.4-5.5-11.7-172.7-15.4-196c-3.4-22-18.2-32.1-21.4-34
								c-0.3,0.1-0.6,0.2-0.9,0.3L2039.5,1136.8z"/>
						</g>
					</g>
				</g>
				<path class="st14" d="M2016.5,1018.5l7.3,17.3c0.9,2.1,0.8,4.4,0,6.5c-1.8,4.7-3.3,13.6,8.4,19.5c0,0,7.1,2.9,8.5-2.1
					s0-3.2,2.1-10.3c1.9-6.2,0.6-12.2-3.1-15.3c-1.3-1.1-1.9-2.8-2.1-4.5l-1.2-11L2016.5,1018.5z"/>
				<path class="st8" d="M2032.5,1035.8c-7.1,1.4-14.8,0.8-14.8,0.8s-21.1-65.1-23.8-71c-2.7-5.9-62.6-76.3-62.6-76.3l24.9-62.4
					c0,0,64.7,108.1,71.3,123.3c10.9,25.1,14.6,81.4,14.6,81.4S2038.1,1034.8,2032.5,1035.8z"/>
				<path class="st13" d="M1950.9,964.5c-8.1-9.9-15.9-24-20.8-43.8c-2.2-8.6-3.9-18.5-4.7-29.5c0,0-2.3-20.9,8.1-35.5
					c3.6-5.1,8.8-9.6,16.2-11.9c4.3-1.5,9.4-2.3,15.4-2.1c1.3,0,11.6-0.3,13.1-0.1c-1.6-3.4,0.6-8-1.2-10.7c0,0-5.1,1.9-5.2,1.9
					c-0.4,0-9.6,0-11.9,0c-1.7,0.1-3.7,0.2-6,0.5c-7.7,1.1-18.2,4.1-26.5,11.9c-2.6,2.3-4.9,5.2-6.9,8.6c-0.8,1.3-1.6,3.1-2.3,5
					c-5,15.1-4.2,45.9,5.5,74.5c6.3,18.4,16.3,35.9,31,48c7.5,6.2,17.3,11.3,27.4,14c0.9,0.2,1.8-0.4,2-1.3l0.7-4
					c0.2-1-0.4-2-1.3-2.3C1978.5,986,1963.2,979.9,1950.9,964.5z"/>
			</g>
			<g>
				<path class="st20" d="M2324.1,933.4c0,0-10.9,5.9-13,12.7c-2.1,6.9-2.6,86.7-6,93.7c-3.4,7.1-6.6,47.8-1.4,67.4
					c0,0-4,17.4-2.8,20.8c1.3,3.4,11.7,7.6,15.4,7.3c3.7-0.3,5.6-22,1.5-28.2L2324.1,933.4z"/>
				<path class="st12" d="M2427.5,902.5c-6.7-5.9-8.4-15.7-8.7-21.4c1.3,10.1,10.4,19.1,10.4,19.1c-10.8-12.9,6.6-59.9-20.7-71.8
					c-17.9-7.8-31.1-2.7-38.1,1.8c-15.6-2.1-34.4,20.4-34.4,20.4l37.4,49.6c0,0,2.7-6.2,6.4-5.9c-2,7.9-3.2,14.3,0.7,18.3
					c19.5,20,11.5,29.7,22.7,33.2C2416.8,949.9,2444,916.9,2427.5,902.5z"/>
				<path class="st12" d="M2331.5,931c0,0-12,0.8-18.2,7.8c-6.2,7.1-7,64.8-7,64.8s1.7,6.5,8.9,5.9
					C2322.4,1009.1,2331.5,931,2331.5,931z"/>
				<path class="st21" d="M2454.2,1075c-0.8,2-4.4,3.8-9.6,5.1c-11.6,2.9-31.2,3.3-45.5-2c-15.3-5.7-26.4-86.6-31.2-128.2
					c-1.6-14.5-2.5-24.2-2.5-24.2s8.8-13.8,42.9-9.2c34.1,4.6,37.5,16.1,40.6,36.7C2451.9,973.9,2456.9,1068.5,2454.2,1075z"/>
				<path class="st22" d="M2444.6,1080c-11.6,2.9-31.2,3.3-45.5-2c-15.3-5.7-26.4-86.6-31.2-128.2c4-14.3,7.2-23.7,7.2-23.7
					s42.8-5.2,51.1,7.7C2433.7,945.5,2442.7,1056.7,2444.6,1080z"/>
				<path class="st20" d="M2413.6,1085c-11.7-26.3-17.3-33.7-17.5-42c-0.2-6.5,3.1-13.6,9.3-30.9c1.5-4.1,2.5-8.3,3.1-12.5
					c5-33.3-14.3-69.4-26.3-71.8c-3.3-0.9-9-12.9-8.9-32.3l-1.5,0.3l-25.2,5c0,0,0.6,7.9,0.6,15.4c0,6.2-0.4,12.1-1.8,12.9
					c-1.8,0.2-2.9,0.3-2.9,0.3s-21,29.2-22.8,56.4s16.8,39-0.1,93.3C2302.2,1134.5,2420.1,1099.5,2413.6,1085z"/>
				<path class="st23" d="M2346.6,900.8c0,0,0.6,7.9,0.6,15.4c14.1-0.4,21.6-13.3,24.6-20.4L2346.6,900.8z"/>
				<path class="st12" d="M2374.4,893.1c0,0,7.4-11.7,9.2-21.7c1.3-7.1-2.4-33.6-28.9-29.8c0,0-7.7,0.8-15,5.7
					c-5.8,3.9-14.1,12.3-4.8,35.4l2.4,7.8L2374.4,893.1z"/>
				<path class="st20" d="M2341.9,907.9c0,0,33.4,0.6,33.4-20.3c0-20.8,4.4-34.8-17-36c-21.3-1.2-25.5,6.7-27.2,13.6
					C2329.4,872.2,2333.2,907.2,2341.9,907.9z"/>
				<path class="st12" d="M2343.1,851.1c0,0,9.1,24.4,23.2,28c14,3.6,20.1-0.2,20.1-0.2s4.9-22.9,2.7-37.8
					C2389.1,841.2,2350,839.5,2343.1,851.1z"/>
				<path class="st12" d="M2345.4,853.1c0,0-6.8,5.4-8.5,10.7s-2.4,16.2-5.6,15.8c0,0-6.9-16.6,0.9-26
					C2340.3,843.8,2345.4,853.1,2345.4,853.1z"/>
				<path class="st17" d="M2384,1337.1c-8.4,33.4-21.1,59.1-21.1,59.1l-11-0.8c0,0,5.4-25.7,5.1-60.4c-0.2-24.3-3.2-53-12.8-80.4
					c-33-94.1-27.6-162.6-27.6-162.6l62,7.3l2.9,0.3c0.3,28.5,1,67.1,1.6,97.3c0.6,27.2,1.1,47.5,1.1,47.5
					C2396.1,1270.1,2391.8,1306.3,2384,1337.1z"/>
				<path class="st24" d="M2405.4,1012.2c-6.3,17.3-9.5,24.3-9.3,30.9c-20-30.9-56-35.6-56-35.6l68.4-7.8
					C2407.9,1003.9,2406.9,1008.1,2405.4,1012.2z"/>
				<path class="st20" d="M2457,1112.9l-10,3c0,0-33.1-54.9-36.1-69.2c-1-4.6-3.4-14-6.2-24.4c-5.8-21.6-13.3-48-13.3-48l-2.5-10.7
					l-8.4-36.5c0,0,16.1,1.6,25.6,5.6c3.1,1.3,5.5,2.9,6.3,4.7c6.9,15.2,13.8,53.7,18.7,81.1c2.7,15.3,4.8,27.2,5.9,29.7
					C2440,1055.3,2449.2,1093.9,2457,1112.9z"/>
				<path class="st18" d="M2419.6,1331.8c-3.6,38-19.3,62.6-19.3,62.6l-5.3,3.8c0,0-5-26.8-8.5-58.7c-3.4-30.3-8-62.4-13.2-72.2
					c-20.7-38.8-26.9-185.3-26.9-185.3l62.8-3.1c6.3,10.6,9.1,28.1,9.7,47.9c1.7,50-10.1,115.2-11.9,124.7l0,0
					c-0.1,0.7,0.1,1.4,0.4,2.1C2420.1,1278.3,2421.9,1306.7,2419.6,1331.8z"/>
				<path class="st12" d="M2344.1,854c0,0,6.5,25.6,24.2,33.8c0,0-17.7-15.7-19.2-32.6C2347.6,838.2,2344.1,854,2344.1,854z"/>
				<path class="st12" d="M2421.5,1104c0.1,2.1,0,3.8-0.4,5c-1.3,4.2-5.9,6.1-17,5c-6.8-0.7-9.8-12.1-11.2-21.8
					c-4.1,13.9-9.8,21.7-17.2,23.3c-10.8,2.4-65.1,9-68.6-16.8c-3.9-28.4,7.8-78.6,8.4-105.7c-1.6-9.6-2.1-17.9-2-25.1
					c0.5-19.3,6.1-30.1,10.5-34.5c1.2-0.9,2.5-1.5,7.4-2.4c2.5-0.4,6-0.9,11-1.6l2-0.2c-0.9,1.6-13.2,20.3-12.3,25
					c1,5,44.6,0.5,47.6-2.3s7.8-23.9,7.8-23.9s16.9,0.4,24.4,5.9c0,0,2.2,2.8,2.6,3.5c8.1,15.3,14,54,19.7,81.7
					c-13.7,7.6-25.7,5.3-29.4,4.3C2409.7,1055.3,2420.8,1089.5,2421.5,1104z"/>
				<path class="st22" d="M2342.5,929.4c0,0,0,0-0.1,0.1c-1.5,2.3-24.6,39.4-26.9,63.5c-1.6-9.6-2.1-17.9-2-25.1
					c3-9.1,10.2-29.3,17.9-36.9C2332.5,930,2342.5,929.4,2342.5,929.4z"/>
				<path class="st20" d="M2419.6,1331.8c-3.6,38-19.3,62.6-19.3,62.6l-5.4,4.9c0,0-4.9-27.8-8.4-59.7
					C2390.3,1339.8,2406.6,1340.4,2419.6,1331.8z"/>
				<path class="st20" d="M2384,1337.1c-8.4,33.4-21.1,59.1-21.1,59.1l-11-0.8c0,0,5.4-25.7,5.1-60.4
					C2360.8,1336.9,2368.5,1338.8,2384,1337.1z"/>
				<g>
					<path class="st22" d="M2369.3,1405.4h-7c-2.4-0.4-4.1-1.1-6.5-1.4c-3.7-0.5-5.4,1-5.7,1.4l-0.1,0.1h-29.9
						c-0.8-1.1,0-3.6,0.7-5.4c0.5-1.2,1.5-2.2,2.8-2.6c3.2-0.9,9.4-1.7,15.1-6.9c3.2-2.9,15.5-10.7,15.5-10.7h0.1
						c0.3,0,1.6,0.4,7.2,5.1c2.9,2.4,7.8-3.4,7.8-3.4s0.9,0.8,1.6,2.2c0.6,1.1,1,2.7,0.6,4.6c-0.4,2.7,1,7.7,2.1,11.1
						c0.7,2.1,1.3,3.5,1.3,3.5S2375.4,1404.7,2369.3,1405.4z"/>
					<path class="st16" d="M2371,1383.8c-1.7,1.2-5.2,3.5-7.6,3.8c-3.2,0.4-9.1-7.7-9.1-7.7h0.1c0.3,0,1.6,0.4,7.2,5.1
						c2.9,2.4,7.8-3.4,7.8-3.4S2370.3,1382.4,2371,1383.8z"/>
					<path class="st16" d="M2369.3,1405.4h-7c-2.4-0.4-4.1-1.1-6.5-1.4c-3.7-0.5-5.4,1-5.7,1.4l-0.1,0.1h-29.9
						c-0.8-1.1,0-3.6,0.7-5.4c0.9-0.8,1.2,3.5,1.7,4.2s24.4,0.3,25.7-0.8c1.4-1,5.5-2.8,11.3-1.4c5,1.2,12.4-1.9,14.2-2.7
						c0.7,2.1,1.3,3.5,1.3,3.5S2375.4,1404.7,2369.3,1405.4z"/>
				</g>
				<g>
					<path class="st22" d="M2406.8,1405.4h-7c-2.4-0.4-4.1-1.1-6.5-1.4c-3.7-0.5-5.4,1-5.7,1.4l-0.1,0.1h-29.9
						c-0.8-1.1,0-3.6,0.7-5.4c0.5-1.2,1.5-2.2,2.8-2.6c3.2-0.9,9.4-1.7,15.1-6.9c3.2-2.9,15.5-10.7,15.5-10.7h0.1
						c0.3,0,1.6,0.4,7.2,5.1c2.9,2.4,7.8-3.4,7.8-3.4s0.9,0.8,1.6,2.2c0.6,1.1,1,2.7,0.6,4.6c-0.4,2.7,1,7.7,2.1,11.1
						c0.7,2.1,1.3,3.5,1.3,3.5S2412.9,1404.7,2406.8,1405.4z"/>
					<path class="st16" d="M2408.5,1383.8c-1.7,1.2-5.2,3.5-7.6,3.8c-3.2,0.4-9.1-7.7-9.1-7.7h0.1c0.3,0,1.6,0.4,7.2,5.1
						c2.9,2.4,7.8-3.4,7.8-3.4S2407.8,1382.4,2408.5,1383.8z"/>
					<path class="st16" d="M2406.8,1405.4h-7c-2.4-0.4-4.1-1.1-6.5-1.4c-3.7-0.5-5.4,1-5.7,1.4l-0.1,0.1h-29.9
						c-1.1-1.3,0-3.6,0.7-5.4c0.9-0.8,1.2,3.5,1.7,4.2s24.4,0.3,25.7-0.8c1.4-1,5.5-2.8,11.3-1.4c5,1.2,12.4-1.9,14.2-2.7
						c0.7,2.1,1.3,3.5,1.3,3.5S2412.9,1404.7,2406.8,1405.4z"/>
				</g>
				<path class="st13" d="M2421.5,1104c-7.5-2.5-17-9.1-28.5-24c-30.4-39.3-2.6-85.5,1.1-86.4c3.7-0.9,10.8,29.9,10.8,29.9
					C2409.7,1055.3,2420.8,1089.5,2421.5,1104z"/>
				<path class="st22" d="M2400.5,927.2c0,0-26.7,19-29,63.2c-2.3,44.2,37.5,53.2,37.5,53.2l-2.6-14c0,0-32.2-11.7-23.8-46.9
					s32.7-53.3,32.7-53.3L2400.5,927.2z"/>
				<path class="st16" d="M2412.7,1151.7l-28.1,4.8c0,0-6,2.1-5.3,21.2c0.4,10.5,0,25.6-0.4,37.1c-0.3,8.6,7.4,15.3,15.9,13.8
					l17.7-3c1.7-0.3,2.9-1.8,2.9-3.5L2412.7,1151.7z"/>
				<path class="st8" d="M2558.2,1188.9c-0.8-3.6-2.3-8.3-4.7-14.5c-0.5-1.2-0.9-2.6-1.2-4c-1.7-6.8-1.8-15.3-3.4-21.9
					c0,0-1.7-21.6-29.8-15c-6.5,1.5-14.2,3.2-22.5,4.8c-6.6-3.9-21.8-11.6-36-8.3c-12.3,2.9-19.8,12.2-23.6,18.4
					c-7,1-13.1,1.6-17.5,1.9c-19.9,1.3-21.7,17.2-19.2,26.6c0.4,1.5,0.7,3.8,1,6.7c1.6,14.8-4.4,33.9,3.7,43
					c1.9,2.1,112.8-19.3,144.1-24.6C2555.3,1201.2,2559.6,1195.1,2558.2,1188.9z M2461.7,1135c9.5-2.2,20.1,1.5,27.1,4.9
					c-15.1,2.9-31.4,5.7-45.1,7.7C2447.5,1142.6,2453.4,1137,2461.7,1135z"/>
				<path class="st20" d="M2456.3,1111.3c0,0,3.1,7.2,6.2,9.2c3.2,2,8.4,10.3,7,14c-0.7,1.9-6.2,7.7-12.5,7.1
					c-4-0.4-6.7-18.2-7.9-21.6c-1.2-3.3-2.2-4-2.2-4L2456.3,1111.3z"/>
			</g>
			<g>
				<path class="st13" d="M2203.8,1091c0,0,26.8-12.2,47.1-1.5s7.9,98.8-21.1,107.4l0,0C2229.8,1196.8,2167.5,1272.5,2203.8,1091z"
					/>
				<path class="st25" d="M2156.3,1101.2c-1.3-10.3,1.2-29,1.2-29s-9.1-0.5-14.2,11.5c-10.6,24.9-6,78.6-5.3,86.3
					c0,0-3.6,15.3,1.8,41.7c-0.8,1.9-1.9,4.3-2.5,5.3c-0.1,0.1-0.2,0.2-0.3,0.3l0,0c-0.7,1-0.7,2.3,0,3.4l3.5,5.5
					c0.3,0.5,0.8,0.9,1.3,1.2l0,0l0,0c0.2,0.1,0.4,0.1,0.5,0.2l4.3,1l0.4-14.7l0,0C2148.5,1199.4,2157.5,1110.7,2156.3,1101.2z
					 M2145.1,1214.9l-0.1-0.1L2145.1,1214.9C2145.2,1214.9,2145.1,1215,2145.1,1214.9z"/>
				<path class="st13" d="M2233.5,1393l-3.4,12.4H2201C2201,1405.5,2192.3,1389.6,2233.5,1393z"/>
				<path class="st13" d="M2171.1,1393l-3.4,12.4h-29.1C2138.5,1405.5,2129.9,1389.6,2171.1,1393z"/>
				<path class="st12" d="M2227.9,1017.9c1.9-8.2-0.4-14.3-4.2-20.2c-3.6-5.6-8.7-5.9-13.6-10.6c-4.6-4.5-13.2-7.4-20.1-7.4
					c-21.9,0-40.9,13.4-36.6,36.2c1.4,7.2,0.2,12.9,6.1,21.4c7.3,10.5,16.2,19,30.5,19c7.6,0,14.2-1.7,20.1-7.3
					c3.2-3,7.7-3.4,10.5-6.7C2226.2,1035.7,2225.8,1026.9,2227.9,1017.9z"/>
				<path class="st25" d="M2174.7,1044.9c0,0,4.8,18.6-4.9,26.5l27.3,14l3.6-18.1c0,0-5.2-14.1-3.7-33.8L2174.7,1044.9z"/>
				<path class="st26" d="M2174,1054.2c0,0,28,3.4,28.5-16.3c0.6-19.7-11.1-32.4-18.8-32.3c-15.5,0.3-18.1,6.6-19.9,13.1
					C2162.1,1025.2,2161.2,1052.8,2174,1054.2z"/>
				<path class="st16" d="M2147.4,1203l55.2,4.6c0,0,6.5,96.9-29.8,186.7l-30.9-0.6L2147.4,1203z"/>
				<path class="st8" d="M2233.1,1208.6c0,0,17,66,3.2,186.5h-37.5l-18-156.4c-0.7-4.6-9.4-11.1-9.4-11.1l-0.3-17.9L2233.1,1208.6z"
					/>
				<path class="st27" d="M2234.3,1110.7l3.6-29.7c-0.5-0.8-1-1.4-1.5-2.1c-6.3-7.8-30.8-11.2-35.7-11.7c0,0.1-0.2,0.4-0.9,1.2
					c-4.5,4.1-10.6,8.4-18.7,7.3c-6.9-0.9-8-4.5-7.8-8.4c-14.5,2.4-22.7,7-22.7,7c-14.7,5.5-17.7,54.4-17.7,54.4
					c2-0.6,11.7,1.1,16.3,2l-1.8,72.5c35.1,15.3,85.7,5.5,85.7,5.5l-0.1-0.4l-3.4-58l3.2-26.5L2234.3,1110.7z"/>
				<path class="st28" d="M2181.5,1042.9c0,0-0.6,2.5-6.7,2c0,0-5.1-0.4-4.9-3.1C2169.8,1041.8,2174.8,1039.9,2181.5,1042.9z"/>
				<path class="st29" d="M2211.8,1206.2c2.4,3,14.2,4,21.2,1.9l-3.4-57.9l4.7-39.4l-4.6-2.1c0,0-20.1,16.1-17.8,29
					C2214.4,1150.5,2208.7,1202.4,2211.8,1206.2z"/>
				<path class="st27" d="M2255,1113.7c0,0-15.5,5.8-22.2,10c-1.3,0.8-2.2,1.4-2.7,2.1l-21.2-42.3l-4.1-8l-3.7-7.6l-0.3-0.7
					c0,0,0.3,0,0.9,0.1c2.1,0.2,7.2,0.9,13.1,2.2c3.7,0.9,7.8,1.9,11.4,3.3h0.1c4.4,1.6,8.1,3.7,10.2,6.1c0.5,0.7,1,1.3,1.5,2.1
					C2245.1,1091.2,2255,1113.7,2255,1113.7z"/>
				<path class="st13" d="M2232.9,1193.3c0,0-76.4-82-28.1-117.8c2.8-2.2,6.1-4.2,10-5.9c3.7,0.9,7.8,1.9,11.4,3.3
					c-3.9,1.1-11.4,3.9-17.3,10.6c-11.7,13-16.4,41.4,23.4,99.1L2232.9,1193.3z"/>
				<path class="st12" d="M2176.8,1005.8c0,0,23.9,0,18.4,16.4c-3.5,10.3,8,11.9,8,11.9l5.5-16.6l-3.5-12.9L2176.8,1005.8z"/>
				<path class="st25" d="M2254.3,1113.8c-7.4,2.3-18.5,7.2-21.9,10.6c3.8,8.6,5.9,14.3,5.9,14.3c-2.8-1.3-17.4-2.4-25-3
					c-0.9-0.1-7.8-2.3-7.8-2.3s-0.1-11.8-13.6-12.7c0,0-5.6,0-4.5,3.9c1.2,3.8,1.3,2.2,2.8,7.6s5.4,9.6,9.6,9.9
					c20.1,16.9,47.7,17,56,16.6c1.5-0.1,2.8-1.1,3.1-2.6C2262.1,1142.4,2260,1128.2,2254.3,1113.8z"/>
			</g>
		</g>
		<path class="st30" d="M2601.4,1410.8H-0.3c-1.4,0-2.5-1.5-2.5-3.3l0,0c0-1.8,1.1-3.3,2.5-3.3h2601.7c1.4,0,2.5,1.5,2.5,3.3l0,0
			C2603.9,1409.3,2602.8,1410.8,2601.4,1410.8z"/>
	</g>
</g>
</svg>
