<svg xmlns="http://www.w3.org/2000/svg" width="232" height="232" viewBox="0 0 232 232">
  <g id="Group_165" data-name="Group 165" transform="translate(-898.036 -255.479)">
    <circle id="Ellipse_19" data-name="Ellipse 19" cx="116" cy="116" r="116" transform="translate(898.036 255.479)" fill="#fafbff"/>
    <circle id="Ellipse_18" data-name="Ellipse 18" cx="85.5" cy="85.5" r="85.5" transform="translate(928.036 285.479)" fill="#f6f8fe"/>
    <g id="receipt" transform="translate(976.327 335.196)">
      <path id="Path_226" data-name="Path 226" d="M110.347,125.392H60.64V65.68h52.183l-1.165.961a3.626,3.626,0,0,0-1.311,2.855Z" transform="translate(-49.601 -55.835)" fill="#fff"/>
      <path id="Path_227" data-name="Path 227" d="M67.261,36.392V32.824a4.894,4.894,0,0,1,4.893-4.893H19.884l-1.456,2.243a4.85,4.85,0,0,0-.786,2.651v3.568H9.879A1.879,1.879,0,0,1,8,34.513V21.479A1.879,1.879,0,0,1,9.879,19.6H78.446a1.879,1.879,0,0,1,1.879,1.879h0V34.5a1.879,1.879,0,0,1-1.879,1.879Z" transform="translate(-6.544 -18.144)" fill="#bac6f4"/>
      <g id="Group_164" data-name="Group 164" transform="translate(0 0)">
        <path id="Path_228" data-name="Path 228" d="M83.316,385.68h-3.7a1.456,1.456,0,1,0,0,2.913h3.7a1.456,1.456,0,1,0,0-2.913Z" transform="translate(-63.931 -317.579)" fill="#223e60"/>
        <path id="Path_229" data-name="Path 229" d="M133.4,385.68h-3.7a1.456,1.456,0,1,0,0,2.913h3.7a1.456,1.456,0,1,0,0-2.913Z" transform="translate(-104.894 -317.579)" fill="#223e60"/>
        <path id="Path_230" data-name="Path 230" d="M183.476,385.68h-3.7a1.456,1.456,0,1,0,0,2.913h3.7a1.456,1.456,0,1,0,0-2.913Z" transform="translate(-145.857 -317.579)" fill="#223e60"/>
        <path id="Path_231" data-name="Path 231" d="M233.556,385.68h-3.7a1.456,1.456,0,1,0,0,2.913h3.7a1.456,1.456,0,1,0,0-2.913Z" transform="translate(-186.82 -317.579)" fill="#223e60"/>
        <path id="Path_232" data-name="Path 232" d="M283.766,385.68H280.1a1.456,1.456,0,1,0,0,2.913h3.7a1.456,1.456,0,1,0,0-2.913Z" transform="translate(-227.914 -317.579)" fill="#223e60"/>
        <path id="Path_233" data-name="Path 233" d="M71.9,11.6H3.335A3.35,3.35,0,0,0,0,14.935v13.02A3.35,3.35,0,0,0,3.335,31.29H9.641V81.157a1.456,1.456,0,0,0,2.913,0V26.28a3.437,3.437,0,0,1,3.437-3.437H60.28a6.32,6.32,0,0,0-1.019,3.437l-.087,54.877a1.456,1.456,0,0,0,2.913,0l.087-49.852H71.9a3.35,3.35,0,0,0,3.335-3.335V14.935A3.35,3.35,0,0,0,71.9,11.6Zm.422,16.37a.422.422,0,0,1-.422.422H62.173V26.28a3.437,3.437,0,0,1,3.437-3.437h1.456a1.456,1.456,0,1,0,0-2.913H7.806a1.456,1.456,0,1,0,0,2.913h2.913A6.292,6.292,0,0,0,9.685,26.28v2.112H3.335a.422.422,0,0,1-.422-.422h0V14.935a.422.422,0,0,1,.422-.422H71.9a.422.422,0,0,1,.422.422h0Z" transform="translate(0 -11.6)" fill="#223e60"/>
        <path id="Path_234" data-name="Path 234" d="M105.3,149.553h16.37a1.456,1.456,0,1,0,0-2.913H105.3a1.456,1.456,0,1,0,0,2.913Z" transform="translate(-84.936 -122.056)" fill="#223e60"/>
        <path id="Path_235" data-name="Path 235" d="M229.856,149.553h8.127a1.456,1.456,0,1,0,0-2.913h-8.127a1.456,1.456,0,1,0,0,2.913Z" transform="translate(-186.82 -122.056)" fill="#223e60"/>
        <path id="Path_236" data-name="Path 236" d="M105.3,196.193h16.37a1.456,1.456,0,1,0,0-2.913H105.3a1.456,1.456,0,1,0,0,2.913Z" transform="translate(-84.936 -160.205)" fill="#223e60"/>
        <path id="Path_237" data-name="Path 237" d="M229.856,196.193h8.127a1.456,1.456,0,1,0,0-2.913h-8.127a1.456,1.456,0,1,0,0,2.913Z" transform="translate(-186.82 -160.205)" fill="#223e60"/>
        <path id="Path_238" data-name="Path 238" d="M105.3,242.913h16.37a1.456,1.456,0,1,0,0-2.913H105.3a1.456,1.456,0,1,0,0,2.913Z" transform="translate(-84.936 -198.42)" fill="#223e60"/>
        <path id="Path_239" data-name="Path 239" d="M229.856,242.913h8.127a1.456,1.456,0,1,0,0-2.913h-8.127a1.456,1.456,0,1,0,0,2.913Z" transform="translate(-186.82 -198.42)" fill="#223e60"/>
      </g>
    </g>
  </g>
</svg>
